<svg width="22" height="22" viewBox="0 0 22 22" fill="none" xmlns="http://www.w3.org/2000/svg">
    <path fill-rule="evenodd" clip-rule="evenodd" d="M11 2C6.02944 2 2 6.02944 2 11C2 15.9706 6.02944 20 11 20C15.9706 20 20 15.9706 20 11C20 6.02944 15.9706 2 11 2ZM0 11C0 4.92487 4.92487 0 11 0C17.0751 0 22 4.92487 22 11C22 17.0751 17.0751 22 11 22C4.92487 22 0 17.0751 0 11ZM15.9471 6.05289C16.2149 6.32073 16.3085 6.71689 16.1887 7.07623L14.0687 13.4362C13.9691 13.7348 13.7348 13.9691 13.4362 14.0687L7.07623 16.1887C6.71689 16.3085 6.32073 16.2149 6.05289 15.9471C5.78506 15.6793 5.69154 15.2831 5.81132 14.9238L7.93132 8.56377C8.03085 8.26517 8.26517 8.03085 8.56377 7.93132L14.9238 5.81132C15.2831 5.69154 15.6793 5.78506 15.9471 6.05289ZM9.67057 9.67057L8.34114 13.6589L12.3294 12.3294L13.6589 8.34114L9.67057 9.67057Z" fill="white"/>
</svg>
