<svg width="14" height="14" viewBox="0 0 14 14" fill="none" xmlns="http://www.w3.org/2000/svg">
    <path fill-rule="evenodd" clip-rule="evenodd" d="M2.33301 1.66634C2.1562 1.66634 1.98663 1.73658 1.8616 1.8616C1.73658 1.98663 1.66634 2.1562 1.66634 2.33301V11.6663C1.66634 11.8432 1.73658 12.0127 1.8616 12.1377C1.98663 12.2628 2.1562 12.333 2.33301 12.333H4.99967C5.36786 12.333 5.66634 12.6315 5.66634 12.9997C5.66634 13.3679 5.36786 13.6663 4.99967 13.6663H2.33301C1.80257 13.6663 1.29387 13.4556 0.918794 13.0806C0.543721 12.7055 0.333008 12.1968 0.333008 11.6663V2.33301C0.333008 1.80257 0.543721 1.29387 0.918794 0.918794C1.29387 0.543721 1.80257 0.333008 2.33301 0.333008H4.99967C5.36786 0.333008 5.66634 0.631485 5.66634 0.999674C5.66634 1.36786 5.36786 1.66634 4.99967 1.66634H2.33301ZM9.19494 3.19494C9.45529 2.93459 9.8774 2.93459 10.1377 3.19494L13.4711 6.52827C13.7314 6.78862 13.7314 7.21073 13.4711 7.47108L10.1377 10.8044C9.8774 11.0648 9.45529 11.0648 9.19494 10.8044C8.93459 10.5441 8.93459 10.122 9.19494 9.8616L11.3902 7.66634H4.99967C4.63148 7.66634 4.33301 7.36786 4.33301 6.99967C4.33301 6.63148 4.63148 6.33301 4.99967 6.33301H11.3902L9.19494 4.13775C8.93459 3.8774 8.93459 3.45529 9.19494 3.19494Z" fill="#667085"/>
</svg>
