<svg width="14" height="14" viewBox="0 0 14 14" fill="none" xmlns="http://www.w3.org/2000/svg">
    <path d="M12.2663 7.4396C12.1594 7.31795 12.1004 7.16154 12.1004 6.9996C12.1004 6.83767 12.1594 6.68126 12.2663 6.5596L13.1196 5.5996C13.2136 5.49472 13.272 5.36274 13.2864 5.22261C13.3008 5.08248 13.2704 4.9414 13.1996 4.8196L11.8663 2.51294C11.7962 2.39129 11.6895 2.29486 11.5614 2.2374C11.4333 2.17993 11.2904 2.16438 11.1529 2.19294L9.8996 2.44627C9.74013 2.47922 9.5741 2.45266 9.43286 2.3716C9.29162 2.29055 9.18494 2.16059 9.13294 2.00627L8.72627 0.786271C8.68155 0.653857 8.59634 0.538848 8.48269 0.457499C8.36904 0.376151 8.2327 0.332577 8.09294 0.332938H5.42627C5.28089 0.32535 5.13703 0.365555 5.01665 0.447414C4.89627 0.529272 4.80599 0.648284 4.7596 0.786271L4.38627 2.00627C4.33427 2.16059 4.22759 2.29055 4.08635 2.3716C3.94511 2.45266 3.77908 2.47922 3.6196 2.44627L2.33294 2.19294C2.20264 2.17452 2.06981 2.19509 1.95117 2.25203C1.83254 2.30898 1.73341 2.39976 1.66627 2.51294L0.332939 4.8196C0.260379 4.94004 0.227753 5.08033 0.239727 5.22042C0.251701 5.36051 0.30766 5.49323 0.399605 5.5996L1.24627 6.5596C1.35315 6.68126 1.41209 6.83767 1.41209 6.9996C1.41209 7.16154 1.35315 7.31795 1.24627 7.4396L0.399605 8.3996C0.30766 8.50598 0.251701 8.6387 0.239727 8.77879C0.227753 8.91888 0.260379 9.05917 0.332939 9.1796L1.66627 11.4863C1.73634 11.6079 1.84302 11.7044 1.97111 11.7618C2.0992 11.8193 2.24215 11.8348 2.37961 11.8063L3.63294 11.5529C3.79242 11.52 3.95844 11.5465 4.09968 11.6276C4.24092 11.7087 4.34761 11.8386 4.39961 11.9929L4.80627 13.2129C4.85266 13.3509 4.94294 13.4699 5.06332 13.5518C5.1837 13.6337 5.32756 13.6739 5.47294 13.6663H8.1396C8.27937 13.6666 8.41571 13.6231 8.52936 13.5417C8.64301 13.4604 8.72821 13.3454 8.77294 13.2129L9.1796 11.9929C9.2316 11.8386 9.33829 11.7087 9.47953 11.6276C9.62077 11.5465 9.78679 11.52 9.94627 11.5529L11.1996 11.8063C11.3371 11.8348 11.48 11.8193 11.6081 11.7618C11.7362 11.7044 11.8429 11.6079 11.9129 11.4863L13.2463 9.1796C13.3171 9.05781 13.3474 8.91673 13.3331 8.7766C13.3187 8.63647 13.2603 8.50449 13.1663 8.3996L12.2663 7.4396ZM11.2729 8.33294L11.8063 8.93294L10.9529 10.4129L10.1663 10.2529C9.68612 10.1548 9.18665 10.2364 8.76267 10.4821C8.33868 10.7279 8.0197 11.1208 7.86627 11.5863L7.61294 12.3329H5.90627L5.66627 11.5729C5.51284 11.1075 5.19386 10.7146 4.76988 10.4688C4.34589 10.223 3.84642 10.1415 3.36627 10.2396L2.57961 10.3996L1.71294 8.92627L2.24627 8.32627C2.57424 7.95959 2.75556 7.48489 2.75556 6.99294C2.75556 6.50098 2.57424 6.02629 2.24627 5.6596L1.71294 5.0596L2.56627 3.59294L3.35294 3.75294C3.83309 3.85109 4.33256 3.76952 4.75654 3.52374C5.18053 3.27795 5.49951 2.88504 5.65294 2.4196L5.90627 1.66627H7.61294L7.86627 2.42627C8.0197 2.89171 8.33868 3.28462 8.76267 3.5304C9.18665 3.77619 9.68612 3.85775 10.1663 3.7596L10.9529 3.5996L11.8063 5.0796L11.2729 5.6796C10.9486 6.04544 10.7696 6.51739 10.7696 7.00627C10.7696 7.49515 10.9486 7.9671 11.2729 8.33294ZM6.7596 4.33294C6.23219 4.33294 5.71662 4.48934 5.27808 4.78235C4.83955 5.07537 4.49776 5.49185 4.29593 5.97912C4.09409 6.46638 4.04128 7.00256 4.14418 7.51985C4.24707 8.03713 4.50105 8.51228 4.87399 8.88522C5.24693 9.25816 5.72208 9.51214 6.23936 9.61503C6.75665 9.71793 7.29282 9.66512 7.78009 9.46328C8.26736 9.26145 8.68384 8.91966 8.97686 8.48112C9.26987 8.04259 9.42627 7.52702 9.42627 6.9996C9.42627 6.29236 9.14532 5.61408 8.64522 5.11399C8.14513 4.61389 7.46685 4.33294 6.7596 4.33294ZM6.7596 8.33294C6.4959 8.33294 6.23811 8.25474 6.01884 8.10823C5.79958 7.96172 5.62868 7.75348 5.52777 7.50985C5.42685 7.26621 5.40044 6.99813 5.45189 6.73948C5.50334 6.48084 5.63033 6.24327 5.8168 6.0568C6.00327 5.87033 6.24084 5.74334 6.49948 5.69189C6.75813 5.64044 7.02621 5.66685 7.26985 5.76776C7.51348 5.86868 7.72172 6.03958 7.86823 6.25884C8.01474 6.47811 8.09294 6.7359 8.09294 6.9996C8.09294 7.35323 7.95246 7.69236 7.70241 7.94241C7.45237 8.19246 7.11323 8.33294 6.7596 8.33294Z" fill="#667085"/>
</svg>
