<svg width="278" height="205" viewBox="0 0 278 205" fill="none" xmlns="http://www.w3.org/2000/svg">
<path d="M275.01 120.51C275.01 165.372 215.046 198.601 139.625 198.601C64.2042 198.601 3.06345 171.922 3.06345 117.37C3.06345 72.5079 64.2042 36.1396 139.625 36.1396C215.046 36.1396 275.01 75.6472 275.01 120.51Z" fill="#FAA7E0"/>
<path d="M268.732 146.869C258.921 176.301 203.198 201.808 140.018 201.808C99.9916 201.808 58.0028 197.884 23.8623 167.275C17.5836 129.995 47.7999 184.043 146.689 181.402C224.781 181.402 274.812 128.627 268.732 146.869Z" fill="#DD2590"/>
<path d="M140.803 170.055C175.531 170.055 207.033 162.689 229.899 150.718C252.706 138.779 267.234 122.066 267.234 103.271C267.234 84.4761 252.706 67.7638 229.899 55.8243C207.033 43.8537 175.531 36.4873 140.803 36.4873C106.074 36.4873 74.5721 43.8537 51.7061 55.8243C28.8995 67.7638 14.371 84.4761 14.371 103.271C14.371 122.066 28.8995 138.779 51.7061 150.718C74.5721 162.689 106.074 170.055 140.803 170.055Z" fill="#FAA7E0" stroke="black" stroke-width="2.5"/>
<path d="M156.5 91.4986L138.749 79.6648C137.465 78.8088 137.035 77.1138 137.881 75.8228C141.579 70.1754 148.312 63.1439 154.145 59.7126C162.808 54.6167 176.513 51.8643 186.716 51.8643C196.919 51.8643 223.996 53.8264 221.641 69.5231C219.758 82.0805 177.429 89.4057 156.5 91.4986Z" fill="white"/>
<path fill-rule="evenodd" clip-rule="evenodd" d="M82.0064 92.5198C80.7926 92.4929 80.5888 94.2456 81.7765 94.4978L127.808 104.272C128.287 104.373 128.622 104.807 128.599 105.296L127.14 136.671C127.106 137.391 127.815 137.894 128.464 137.581C129.98 136.849 132.323 135.518 133.347 133.879C138.856 125.066 144.708 111.097 145.437 109.34C145.487 109.218 145.561 109.109 145.654 109.015L147.966 106.703C148.154 106.515 148.408 106.41 148.674 106.41H158.855H205.984C207.182 106.41 207.366 104.685 206.194 104.432L156.03 93.6127C155.608 93.5217 155.292 93.1701 155.247 92.7407L155.031 90.7133L142.082 82.4725L137.727 88.6615C137.685 88.7211 137.65 88.7851 137.622 88.8524L135.958 92.8448C135.803 93.2174 135.439 93.4602 135.035 93.4602H124.322L82.0064 92.5198Z" fill="black"/>
<path d="M155.031 90.7133L152.857 70.207C152.759 69.2888 151.576 68.9818 151.044 69.737L142.082 82.4725M155.031 90.7133L155.247 92.7407C155.292 93.1701 155.608 93.5217 156.03 93.6127L206.194 104.432C207.366 104.685 207.182 106.41 205.984 106.41H158.855H148.674C148.408 106.41 148.154 106.515 147.966 106.703L145.654 109.015C145.561 109.109 145.487 109.218 145.437 109.34C144.708 111.097 138.856 125.066 133.347 133.879C132.323 135.518 129.98 136.849 128.464 137.581C127.815 137.894 127.106 137.391 127.14 136.671L128.599 105.296C128.622 104.807 128.287 104.373 127.808 104.272L81.7765 94.4978C80.5888 94.2456 80.7926 92.4929 82.0064 92.5198L124.322 93.4602H135.035C135.439 93.4602 135.803 93.2174 135.958 92.8448L137.622 88.8524C137.65 88.7851 137.685 88.7211 137.727 88.6615L142.082 82.4725M155.031 90.7133L142.082 82.4725" stroke="black" stroke-width="2.5"/>
<path d="M102.346 44.8013L109.802 56.1814M132.954 43.2316L135.309 52.2573M163.171 41.2695L159.639 53.0421M194.564 45.9786L184.754 56.1814M217.324 53.0421L206.729 62.0677M241.654 65.5995L233.806 69.5237M253.819 80.9038L240.477 84.0432M261.668 95.4233L247.148 95.8157M260.49 112.297L238.123 109.943M256.959 127.602L241.262 123.677M240.87 142.121L227.135 135.058M215.362 155.071L211.046 150.754M180.829 151.539L187.893 163.312M150.613 154.286L152.183 166.844M123.929 147.615L116.865 164.881M35.2421 136.627L43.0904 132.703M40.3435 124.07L65.8507 120.146L48.5843 130.349L72.9143 127.209L56.0403 136.627M200.45 133.096C194.172 131.657 185.261 133.718 188.285 139.767C192.21 147.615 202.805 133.88 209.084 139.767C212.284 142.767 203.982 149.577 199.273 147.615M232.236 74.2327L222.426 68.3464L216.147 70.8918M216.147 80.9038L207.906 74.2327L216.147 70.8918M216.147 70.8918L223.996 76.9796M88.611 69.5237L76.0536 59.3208L97.6366 63.245L85.4717 52.2573M51.7236 59.3208L65.0659 68.3464M33.6724 73.4479L48.5843 77.3721M21.8998 87.9674L43.8753 91.8916M18.7605 103.664L33.6724 104.449M23.4695 120.146L37.2042 117.791" stroke="black" stroke-width="2.5" stroke-linecap="round" stroke-linejoin="round"/>
<path d="M134.067 100.266L144.529 92.0456C144.644 91.9554 144.807 91.9609 144.915 92.0585L164.348 109.548L183.83 126.505C184.754 127.309 184.803 128.728 183.937 129.594C183.262 130.27 182.217 130.408 181.388 129.931L156.892 115.827L134.087 100.752C133.916 100.639 133.906 100.392 134.067 100.266Z" fill="white"/>
<path d="M133.158 100.744L101.064 71.6358C100.81 71.4047 101.081 70.9965 101.393 71.1416L144.681 91.2931C144.883 91.3871 144.916 91.6603 144.742 91.7994L133.547 100.756C133.432 100.848 133.267 100.843 133.158 100.744Z" fill="#D92D20"/>
<path fill-rule="evenodd" clip-rule="evenodd" d="M46.8959 39.8378C48.4502 40.3076 49.8847 41.206 49.6553 42.8135C49.4844 44.0118 49.0998 45.3286 48.7804 46.2908C48.4859 47.1781 48.5591 48.1568 49.0375 48.96L49.2627 49.338C49.5259 49.7799 50.0821 49.9495 50.5488 49.7332C62.3242 44.2756 73.4338 40.6775 75.4267 39.2429C76.2504 38.4989 70.1222 35.573 65.851 34.57C63.9759 34.1297 61.7195 33.1838 61.6212 31.7626C61.3948 28.488 62.4864 27.6228 63.8553 27.2597C66.5905 26.5343 74.1447 25.8182 77.4394 22.8424C80.7341 19.8665 77.7981 15.7879 76.722 13.7686C75.6459 11.7492 67.7943 3.8844 64.2871 3.31314C60.7798 2.74188 50.3908 6.1429 44.8044 7.82348C39.218 9.50406 21.5952 16.0736 17.8886 19.4215C14.1821 22.7693 12.9067 24.6692 13.7636 30.9995C14.6075 37.2336 16.1084 38.9772 18.7522 41.0763C20.8672 42.7555 29.0651 40.1719 32.103 39.6715L42.0324 36.759C43.3404 38.1879 45.0078 39.2671 46.8959 39.8378ZM50.5967 17.5482C44.5362 17.2401 39.3644 22.0787 39.0453 28.3557C39.0182 28.8876 39.0269 29.4127 39.0691 29.9286C39.0691 29.9286 34.4577 31.0494 31.3182 32.2155C28.217 33.3674 24.2337 34.6094 23.4698 34.1776C22.7059 33.7458 20.9416 33.5648 20.5058 29.7706C20.0701 25.9764 23.2226 22.7051 24.8633 21.3478C26.5041 19.9905 35.1727 16.0428 42.154 13.5826C47.8142 11.588 56.2477 9.71504 59.703 8.98381C60.7191 8.76878 61.7752 8.8849 62.702 9.35357C64.1477 10.0846 66.3565 11.2986 67.7479 12.5264C68.9543 13.5911 70.2984 15.3299 71.1007 16.4304C71.4778 16.9477 71.2547 17.668 70.6558 17.8942C69.2406 18.4286 66.8182 19.319 65.0178 19.8532C62.4533 20.6142 60.9902 20.9718 58.3638 21.4795C56.4755 19.2049 53.7232 17.7072 50.5967 17.5482Z" fill="#FAA7E0" stroke="black" stroke-width="2.5"/>
<path d="M276.507 119.332C276.507 142.362 261.388 163.407 236.528 178.76C211.687 194.101 177.292 203.63 139.233 203.63C101.175 203.63 66.7795 194.101 41.939 178.76C17.0788 163.407 1.95947 142.362 1.95947 119.332C1.95947 96.303 17.0788 75.2576 41.939 59.9049C66.7795 44.5643 101.175 35.0352 139.233 35.0352C177.292 35.0352 211.687 44.5643 236.528 59.9049C261.388 75.2576 276.507 96.303 276.507 119.332Z" stroke="black" stroke-width="2.5"/>
</svg>
