<svg width="290" height="266" viewBox="0 0 290 266" fill="none" xmlns="http://www.w3.org/2000/svg">
<path d="M1.29193 44.6716C-6.04034 26.2485 19.6226 20.1074 33.3706 19.3398C53.534 32.236 198.254 8.44393 269.286 0C269.286 19.7234 283.095 13.3267 276.19 35.7154C272.731 46.9322 290 58.4889 290 70.0034C290 81.5178 276.252 79.2149 271.669 88.4265C267.087 97.6381 276.252 90.7294 271.669 106.85C267.087 122.97 239.591 125.273 235.008 134.484C230.425 143.696 246.465 143.696 244.173 152.907C241.882 162.119 212.095 162.119 202.929 166.725C193.764 171.331 213.683 178.239 211.392 187.451C207.955 201.268 126.88 195.951 122.692 187.451C117.007 175.912 137.033 175.379 127.315 166.725C121.889 161.892 40.2449 145.999 33.3706 134.484C26.4963 122.97 65.4495 129.879 65.4495 120.667C65.4495 111.455 17.3316 118.364 8.16622 102.244C-0.999101 86.1236 42.5362 97.6381 47.1189 79.2149C51.7015 60.7918 10.4573 67.7005 1.29193 44.6716Z" fill="#9B8AFB"/>
<path d="M88.3628 201.268C99.8195 203.571 143.355 212.783 145.646 205.874C147.937 198.965 74.6148 196.662 88.3628 201.268Z" fill="#9B8AFB"/>
<path d="M106.693 231.206C86.0715 231.206 65.4495 225.55 49.4102 212.783C44.8275 205.874 95.2368 221.994 108.985 224.297C122.733 226.6 177.725 219.691 173.142 228.903C168.559 238.114 127.315 231.206 106.693 231.206Z" fill="#9B8AFB"/>
<path d="M191.473 265.749C158.478 267.591 133.426 258.84 125.024 254.235C118.15 247.326 168.559 254.235 180.016 256.537C191.473 258.84 241.882 251.932 232.717 258.84C223.551 265.749 232.717 263.446 191.473 265.749Z" fill="#9B8AFB"/>
</svg>
