<svg width="1277" height="621" viewBox="0 0 1277 621" fill="none" xmlns="http://www.w3.org/2000/svg">
<path d="M179.645 -91.6914C186.281 -75.9146 215.477 -40.3751 279.178 -24.4322C358.805 -4.50349 343.875 15.4252 306.55 17.9163C269.225 20.4074 204.528 0.478676 209.505 30.3717C214.482 60.2647 274.202 57.7736 254.295 70.229C234.388 82.6844 67.6701 82.6844 77.6235 105.104C87.5768 127.524 120.461 149.338 157.786 144.356C184.622 136.992 196.089 152.13 197.902 159.083C200.856 170.418 224.435 164.89 241.853 162.399C259.272 159.908 336.41 177.346 291.62 197.274C246.83 217.203 119.925 207.239 114.948 249.587C109.972 291.936 246.83 299.409 276.69 301.9C306.55 304.391 358.805 304.391 356.317 319.337C353.828 334.284 301.573 321.829 301.573 341.757C301.573 361.686 356.317 364.177 343.875 381.615C331.433 399.052 192.087 381.615 202.04 413.999C211.993 446.383 311.527 451.365 361.293 451.365C411.06 451.365 455.85 453.856 513.082 456.347C570.313 458.838 607.638 466.311 612.615 451.365C617.592 436.418 605.15 431.436 615.103 423.963C625.057 416.49 781.822 436.418 799.24 416.49C816.658 396.561 809.193 386.597 816.658 381.615C824.123 376.632 908.727 391.579 926.145 374.141C943.563 356.704 933.61 351.722 931.122 351.722C928.633 351.722 916.192 344.248 928.633 331.793C941.075 319.337 1084 329.302 1120.23 329.302C1155.07 329.302 1194.89 334.284 1204.84 321.829C1214.79 309.373 1224.74 289.444 1167.51 267.025C1148.44 259.551 1123.51 249.915 1095.35 242.114C1050.18 229.598 1003.63 220.954 1013.24 209.73C1028.17 192.292 1086.97 207.788 1132.68 197.274C1168.62 189.007 1214.79 197.274 1222.26 167.381C1229.72 137.488 1130.19 137.488 1082.91 130.015C1045.59 125.033 969.442 109.09 963.47 85.1756C956.005 55.2825 975.912 55.2825 980.888 20.4073C985.865 -14.4678 960.982 -11.9767 963.47 -29.4143C965.958 -46.8519 998.307 -54.3252 1028.17 -51.8341C1058.03 -49.343 1117.75 -61.7984 1122.72 -89.2004C1126.7 -111.122 495.663 -99.9951 179.645 -91.6914Z" fill="#FEC84B"/>
<path d="M92.5535 162.399C96.7007 167.381 112.46 177.844 142.32 179.837C179.645 182.328 187.11 189.801 184.622 179.837C182.133 169.872 164.715 162.399 144.808 162.399C124.902 162.399 90.0651 149.944 92.5535 162.399Z" fill="#FEC84B"/>
<path d="M1053.05 82.6845C1072.96 87.6666 1072.96 97.631 1063 100.122C1053.05 102.613 1028.17 95.1399 1035.63 90.1577C1043.1 85.1755 1043.1 82.6845 1053.05 82.6845Z" fill="#FEC84B"/>
<path d="M1277 565.955C1257.09 588.375 1135.17 593.357 1105.31 598.339C1075.44 603.321 1043.1 603.321 1020.7 615.776C998.307 628.232 965.958 613.285 993.33 605.812C1020.7 598.339 1080.42 593.357 1125.21 583.392C1170 573.428 1277 548.517 1277 565.955Z" fill="#FEC84B"/>
<path d="M448.385 583.392C460.827 593.357 483.222 605.812 532.988 608.303C582.755 610.794 649.94 618.268 667.358 620.759C684.777 623.25 679.8 605.812 637.498 598.339C595.197 590.866 508.105 588.375 485.71 583.392C463.315 578.41 440.92 568.446 448.385 583.392Z" fill="#FEC84B"/>
<path d="M281.667 546.026C289.132 555.99 309.038 578.41 333.922 578.41C358.805 578.41 383.688 583.392 398.618 588.375C413.548 593.357 428.478 598.339 428.478 588.375C428.478 578.41 423.502 568.446 383.688 563.464C343.875 558.482 276.69 528.589 281.667 546.026Z" fill="#FEC84B"/>
<path d="M2.97344 448.874C-19.0572 410.278 87.5768 470.297 117.437 476.276C154.762 483.749 246.83 518.624 231.9 526.097C216.97 533.571 87.5768 491.222 70.1585 483.749C52.7401 476.276 12.9268 466.311 2.97344 448.874Z" fill="#FEC84B"/>
<path d="M15.4151 389.088C25.3685 398.222 54.7308 417.984 92.5535 423.963C139.832 431.436 147.297 433.927 149.785 426.454C152.273 418.981 127.39 404.034 92.5535 399.052C57.7168 394.07 50.2518 386.597 40.2985 381.615C30.3451 376.632 7.95013 379.123 15.4151 389.088Z" fill="#FEC84B"/>
</svg>
