<svg width="18" height="18" viewBox="0 0 18 18" fill="none" xmlns="http://www.w3.org/2000/svg">
    <path d="M11.341 9.23366C11.8685 8.66719 12.1657 7.9243 12.1743 7.15033C12.1743 6.31489 11.8425 5.51368 11.2517 4.92294C10.661 4.3322 9.85978 4.00033 9.02435 4.00033C8.18892 4.00033 7.3877 4.3322 6.79696 4.92294C6.20622 5.51368 5.87435 6.31489 5.87435 7.15033C5.88305 7.9243 6.1802 8.66719 6.70768 9.23366C5.97323 9.59938 5.3412 10.1419 4.86845 10.8125C4.39569 11.4831 4.09704 12.2607 3.99935 13.0753C3.97504 13.2963 4.03952 13.518 4.17861 13.6914C4.3177 13.8649 4.52 13.976 4.74102 14.0003C4.96203 14.0246 5.18365 13.9602 5.35712 13.8211C5.53059 13.682 5.6417 13.4797 5.66602 13.2587C5.76546 12.4513 6.15672 11.7081 6.76609 11.1692C7.37546 10.6303 8.16086 10.3328 8.97435 10.3328C9.78784 10.3328 10.5732 10.6303 11.1826 11.1692C11.792 11.7081 12.1832 12.4513 12.2827 13.2587C12.3059 13.4723 12.4107 13.6688 12.5753 13.807C12.7399 13.9452 12.9515 14.0145 13.166 14.0003H13.2577C13.4761 13.9752 13.6758 13.8647 13.8132 13.693C13.9505 13.5213 14.0144 13.3023 13.991 13.0837C13.9006 12.2733 13.6113 11.4979 13.149 10.8262C12.6867 10.1545 12.0657 9.60749 11.341 9.23366ZM8.99935 8.63366C8.70597 8.63366 8.41919 8.54666 8.17525 8.38367C7.93132 8.22068 7.7412 7.98902 7.62893 7.71797C7.51666 7.44693 7.48728 7.14868 7.54452 6.86094C7.60175 6.5732 7.74303 6.3089 7.95047 6.10145C8.15792 5.894 8.42223 5.75273 8.70997 5.69549C8.9977 5.63826 9.29595 5.66763 9.567 5.7799C9.83804 5.89217 10.0697 6.0823 10.2327 6.32623C10.3957 6.57016 10.4827 6.85695 10.4827 7.15033C10.4827 7.54373 10.3264 7.92102 10.0482 8.1992C9.77005 8.47738 9.39275 8.63366 8.99935 8.63366ZM14.8327 0.666992H3.16602C2.50297 0.666992 1.86709 0.930384 1.39825 1.39923C0.929408 1.86807 0.666016 2.50395 0.666016 3.16699V14.8337C0.666016 15.4967 0.929408 16.1326 1.39825 16.6014C1.86709 17.0703 2.50297 17.3337 3.16602 17.3337H14.8327C15.4957 17.3337 16.1316 17.0703 16.6005 16.6014C17.0693 16.1326 17.3327 15.4967 17.3327 14.8337V3.16699C17.3327 2.50395 17.0693 1.86807 16.6005 1.39923C16.1316 0.930384 15.4957 0.666992 14.8327 0.666992ZM15.666 14.8337C15.666 15.0547 15.5782 15.2666 15.4219 15.4229C15.2657 15.5792 15.0537 15.667 14.8327 15.667H3.16602C2.945 15.667 2.73304 15.5792 2.57676 15.4229C2.42048 15.2666 2.33268 15.0547 2.33268 14.8337V3.16699C2.33268 2.94598 2.42048 2.73402 2.57676 2.57774C2.73304 2.42146 2.945 2.33366 3.16602 2.33366H14.8327C15.0537 2.33366 15.2657 2.42146 15.4219 2.57774C15.5782 2.73402 15.666 2.94598 15.666 3.16699V14.8337Z" fill="#000"/>
</svg>
