<svg width="12" height="12" viewBox="0 0 12 12" fill="none" xmlns="http://www.w3.org/2000/svg">
    <path fill-rule="evenodd" clip-rule="evenodd" d="M5.99935 0.666992C6.36754 0.666992 6.66602 0.965469 6.66602 1.33366V5.33366H10.666C11.0342 5.33366 11.3327 5.63214 11.3327 6.00033C11.3327 6.36852 11.0342 6.66699 10.666 6.66699H6.66602V10.667C6.66602 11.0352 6.36754 11.3337 5.99935 11.3337C5.63116 11.3337 5.33268 11.0352 5.33268 10.667V6.66699H1.33268C0.964492 6.66699 0.666016 6.36852 0.666016 6.00033C0.666016 5.63214 0.964492 5.33366 1.33268 5.33366H5.33268V1.33366C5.33268 0.965469 5.63116 0.666992 5.99935 0.666992Z" fill="white"/>
</svg>
