<svg width="20" height="18" viewBox="0 0 20 18" fill="none" xmlns="http://www.w3.org/2000/svg">
    <path fill-rule="evenodd" clip-rule="evenodd" d="M3.33398 2.33366C3.11297 2.33366 2.90101 2.42146 2.74473 2.57774C2.58845 2.73402 2.50065 2.94598 2.50065 3.16699V8.16699C2.50065 10.1561 3.29083 12.0638 4.69735 13.4703C5.39379 14.1667 6.22058 14.7192 7.13052 15.0961C8.04047 15.473 9.01574 15.667 10.0007 15.667C11.9898 15.667 13.8974 14.8768 15.304 13.4703C16.7105 12.0638 17.5006 10.1561 17.5006 8.16699V3.16699C17.5006 2.94598 17.4129 2.73402 17.2566 2.57774C17.1003 2.42146 16.8883 2.33366 16.6673 2.33366H3.33398ZM1.56622 1.39923C2.03506 0.930384 2.67094 0.666992 3.33398 0.666992H16.6673C17.3304 0.666992 17.9662 0.930384 18.4351 1.39923C18.9039 1.86807 19.1673 2.50395 19.1673 3.16699V8.16699C19.1673 10.5981 18.2015 12.9297 16.4825 14.6488C14.7634 16.3679 12.4318 17.3337 10.0007 17.3337C8.79687 17.3337 7.60487 17.0966 6.49272 16.6359C5.38057 16.1752 4.37004 15.5 3.51884 14.6488C1.79976 12.9297 0.833984 10.5981 0.833984 8.16699V3.16699C0.833984 2.50395 1.09738 1.86807 1.56622 1.39923ZM6.07806 6.7444C6.4035 6.41897 6.93114 6.41897 7.25657 6.7444L10.0007 9.48848L12.7447 6.7444C13.0702 6.41897 13.5978 6.41897 13.9232 6.7444C14.2487 7.06984 14.2487 7.59748 13.9232 7.92291L10.5899 11.2562C10.2645 11.5817 9.73683 11.5817 9.4114 11.2562L6.07806 7.92291C5.75262 7.59748 5.75262 7.06984 6.07806 6.7444Z" fill="#000"/>
</svg>
