<svg width="20" height="20" viewBox="0 0 20 20" fill="none" xmlns="http://www.w3.org/2000/svg">
    <path d="M17.5498 15.815C18.9503 13.9789 19.6373 11.6969 19.4832 9.39251C19.3291 7.08813 18.3444 4.91796 16.7119 3.28487C15.0794 1.65179 12.9101 0.666734 10.6066 0.512582C8.30306 0.358431 6.02188 1.04565 4.18652 2.44667L2.10129 0.36066C1.98699 0.246316 1.85129 0.155615 1.70195 0.0937324C1.55261 0.0318503 1.39255 0 1.23091 0C0.90445 0 0.591364 0.129733 0.360524 0.36066C0.246224 0.475003 0.155556 0.610748 0.0936972 0.760144C0.0318384 0.909541 0 1.06966 0 1.23137C0 1.55795 0.129684 1.87115 0.360524 2.10208L2.44575 4.18809C1.04568 6.02446 0.359242 8.30666 0.513866 10.611C0.66849 12.9154 1.65367 15.0853 3.28652 16.718C4.91937 18.3507 7.08895 19.3353 9.3925 19.4889C11.6961 19.6425 13.9771 18.9548 15.8121 17.5533L17.8973 19.6393C18.0116 19.7537 18.1473 19.8444 18.2967 19.9063C18.446 19.9681 18.6061 20 18.7677 20C18.9294 20 19.0894 19.9681 19.2388 19.9063C19.3881 19.8444 19.5238 19.7537 19.6381 19.6393C19.7524 19.525 19.8431 19.3892 19.9049 19.2399C19.9668 19.0905 19.9986 18.9303 19.9986 18.7686C19.9986 18.6069 19.9668 18.4468 19.9049 18.2974C19.8431 18.148 19.7524 18.0123 19.6381 17.8979L17.5498 15.815ZM9.99931 17.0764C8.70612 17.0754 7.43797 16.7197 6.33272 16.048C5.22746 15.3764 4.3274 14.4145 3.73037 13.267C3.13334 12.1194 2.8622 10.8301 2.94642 9.53916C3.03064 8.24823 3.46699 7.00509 4.20804 5.94489L14.0498 15.7904C12.8645 16.6266 11.4497 17.0758 9.99931 17.0764ZM15.7906 14.0551L5.94881 4.20963C7.31083 3.26711 8.96025 2.83255 10.6097 2.98165C12.2591 3.13076 13.8039 3.85408 14.9749 5.02558C16.146 6.19708 16.8691 7.74248 17.0181 9.39251C17.1671 11.0425 16.7327 12.6926 15.7906 14.0551Z" fill="#6941C6"/>
</svg>
