<svg width="18" height="16" viewBox="0 0 18 16" fill="none" xmlns="http://www.w3.org/2000/svg">
    <path d="M14.8327 3.41634H12.3327V2.58301C12.3327 1.91997 12.0693 1.28408 11.6005 0.815241C11.1316 0.3464 10.4957 0.0830078 9.83268 0.0830078H8.16602C7.50297 0.0830078 6.86709 0.3464 6.39825 0.815241C5.92941 1.28408 5.66602 1.91997 5.66602 2.58301V3.41634H3.16602C2.50297 3.41634 1.86709 3.67973 1.39825 4.14857C0.929408 4.61741 0.666016 5.2533 0.666016 5.91634V13.4163C0.666016 14.0794 0.929408 14.7153 1.39825 15.1841C1.86709 15.6529 2.50297 15.9163 3.16602 15.9163H14.8327C15.4957 15.9163 16.1316 15.6529 16.6005 15.1841C17.0693 14.7153 17.3327 14.0794 17.3327 13.4163V5.91634C17.3327 5.2533 17.0693 4.61741 16.6005 4.14857C16.1316 3.67973 15.4957 3.41634 14.8327 3.41634ZM7.33268 2.58301C7.33268 2.36199 7.42048 2.15003 7.57676 1.99375C7.73304 1.83747 7.945 1.74967 8.16602 1.74967H9.83268C10.0537 1.74967 10.2657 1.83747 10.4219 1.99375C10.5782 2.15003 10.666 2.36199 10.666 2.58301V3.41634H7.33268V2.58301ZM15.666 13.4163C15.666 13.6374 15.5782 13.8493 15.4219 14.0056C15.2657 14.1619 15.0537 14.2497 14.8327 14.2497H3.16602C2.945 14.2497 2.73304 14.1619 2.57676 14.0056C2.42048 13.8493 2.33268 13.6374 2.33268 13.4163V8.83301C3.14555 9.15543 3.98117 9.41726 4.83268 9.61634V10.108C4.83268 10.329 4.92048 10.541 5.07676 10.6973C5.23304 10.8535 5.445 10.9413 5.66602 10.9413C5.88703 10.9413 6.09899 10.8535 6.25527 10.6973C6.41155 10.541 6.49935 10.329 6.49935 10.108V9.93301C7.32797 10.0458 8.16309 10.1043 8.99935 10.108C9.83561 10.1043 10.6707 10.0458 11.4993 9.93301V10.108C11.4993 10.329 11.5871 10.541 11.7434 10.6973C11.8997 10.8535 12.1117 10.9413 12.3327 10.9413C12.5537 10.9413 12.7657 10.8535 12.9219 10.6973C13.0782 10.541 13.166 10.329 13.166 10.108V9.61634C14.0175 9.41726 14.8531 9.15543 15.666 8.83301V13.4163ZM15.666 7.00801C14.8555 7.35009 14.0197 7.6287 13.166 7.84134V7.58301C13.166 7.36199 13.0782 7.15003 12.9219 6.99375C12.7657 6.83747 12.5537 6.74967 12.3327 6.74967C12.1117 6.74967 11.8997 6.83747 11.7434 6.99375C11.5871 7.15003 11.4993 7.36199 11.4993 7.58301V8.19967C9.84206 8.44971 8.15664 8.44971 6.49935 8.19967V7.58301C6.49935 7.36199 6.41155 7.15003 6.25527 6.99375C6.09899 6.83747 5.88703 6.74967 5.66602 6.74967C5.445 6.74967 5.23304 6.83747 5.07676 6.99375C4.92048 7.15003 4.83268 7.36199 4.83268 7.58301V7.85801C3.97903 7.64537 3.14319 7.36675 2.33268 7.02467V5.91634C2.33268 5.69533 2.42048 5.48337 2.57676 5.32709C2.73304 5.17081 2.945 5.08301 3.16602 5.08301H14.8327C15.0537 5.08301 15.2657 5.17081 15.4219 5.32709C15.5782 5.48337 15.666 5.69533 15.666 5.91634V7.00801Z" fill="#000"/>
</svg>
