<svg width="18" height="18" viewBox="0 0 18 18" fill="none" xmlns="http://www.w3.org/2000/svg">
    <path d="M13.1661 6.50033H4.83273C4.61172 6.50033 4.39976 6.58812 4.24348 6.7444C4.0872 6.90068 3.9994 7.11265 3.9994 7.33366C3.9994 7.55467 4.0872 7.76663 4.24348 7.92291C4.39976 8.07919 4.61172 8.16699 4.83273 8.16699H13.1661C13.3871 8.16699 13.599 8.07919 13.7553 7.92291C13.9116 7.76663 13.9994 7.55467 13.9994 7.33366C13.9994 7.11265 13.9116 6.90068 13.7553 6.7444C13.599 6.58812 13.3871 6.50033 13.1661 6.50033ZM9.83273 9.83366H4.83273C4.61172 9.83366 4.39976 9.92146 4.24348 10.0777C4.0872 10.234 3.9994 10.446 3.9994 10.667C3.9994 10.888 4.0872 11.1 4.24348 11.2562C4.39976 11.4125 4.61172 11.5003 4.83273 11.5003H9.83273C10.0537 11.5003 10.2657 11.4125 10.422 11.2562C10.5783 11.1 10.6661 10.888 10.6661 10.667C10.6661 10.446 10.5783 10.234 10.422 10.0777C10.2657 9.92146 10.0537 9.83366 9.83273 9.83366ZM8.9994 0.666992C7.90505 0.666992 6.82142 0.88254 5.81037 1.30133C4.79932 1.72012 3.88067 2.33395 3.10684 3.10777C1.54404 4.67057 0.666067 6.79019 0.666067 9.00033C0.658782 10.9246 1.32506 12.7908 2.5494 14.2753L0.882733 15.942C0.767102 16.0592 0.688772 16.208 0.657627 16.3696C0.626482 16.5313 0.643917 16.6986 0.707733 16.8503C0.776948 17.0003 0.889153 17.1263 1.03011 17.2123C1.17106 17.2984 1.3344 17.3406 1.4994 17.3337H8.9994C11.2095 17.3337 13.3292 16.4557 14.892 14.8929C16.4548 13.3301 17.3327 11.2105 17.3327 9.00033C17.3327 6.79019 16.4548 4.67057 14.892 3.10777C13.3292 1.54497 11.2095 0.666992 8.9994 0.666992ZM8.9994 15.667H3.50773L4.28273 14.892C4.43794 14.7359 4.52506 14.5246 4.52506 14.3045C4.52506 14.0843 4.43794 13.8731 4.28273 13.717C3.19155 12.627 2.51205 11.1924 2.35998 9.65765C2.20791 8.12287 2.59269 6.58283 3.44876 5.29993C4.30483 4.01702 5.57923 3.07062 7.05483 2.62197C8.53043 2.17332 10.1159 2.25016 11.5412 2.83942C12.9665 3.42868 14.1434 4.49389 14.8714 5.85357C15.5994 7.21325 15.8335 8.78328 15.5337 10.2962C15.2339 11.8091 14.4188 13.1712 13.2273 14.1505C12.0359 15.1299 10.5417 15.6658 8.9994 15.667Z" fill="#000"/>
</svg>
