<svg width="20" height="20" viewBox="0 0 20 20" fill="none" xmlns="http://www.w3.org/2000/svg">
    <path fill-rule="evenodd" clip-rule="evenodd" d="M10.6466 2.29223C11.5896 1.38144 12.8526 0.877469 14.1636 0.888861C15.4746 0.900253 16.7286 1.4261 17.6557 2.35314C18.5827 3.28018 19.1085 4.53424 19.1199 5.84522C19.1313 7.15621 18.6274 8.41922 17.7166 9.36223L17.7064 9.37256L15.2065 11.8725C15.2065 11.8725 15.2066 11.8724 15.2065 11.8725C14.6997 12.3795 14.0896 12.7717 13.4179 13.0222C12.7461 13.2728 12.0283 13.376 11.3132 13.3248C10.598 13.2736 9.90226 13.0691 9.27307 12.7254C8.64388 12.3816 8.09597 11.9066 7.66652 11.3325C7.39085 10.9639 7.46613 10.4417 7.83468 10.166C8.20322 9.89033 8.72546 9.96561 9.00113 10.3342C9.28743 10.7169 9.6527 11.0336 10.0722 11.2628C10.4916 11.492 10.9555 11.6282 11.4322 11.6624C11.909 11.6965 12.3875 11.6277 12.8354 11.4607C13.2832 11.2936 13.6899 11.0322 14.0278 10.6942L16.5225 8.19942C17.1267 7.57128 17.4609 6.7314 17.4533 5.85971C17.4457 4.98572 17.0952 4.14968 16.4771 3.53165C15.8591 2.91362 15.0231 2.56306 14.1491 2.55546C13.277 2.54789 12.4367 2.8824 11.8085 3.4871L10.3797 4.90761C10.0533 5.2321 9.52567 5.23056 9.20119 4.90417C8.8767 4.57779 8.87824 4.05015 9.20462 3.72567L10.638 2.30067L10.6466 2.29223ZM6.58312 6.97771C7.25488 6.72712 7.97267 6.62394 8.68781 6.67516C9.40296 6.72637 10.0987 6.93079 10.7279 7.27455C11.3571 7.61831 11.905 8.09336 12.3345 8.66749C12.6101 9.03603 12.5348 9.55827 12.1663 9.83394C11.7978 10.1096 11.2755 10.0343 10.9999 9.66579C10.7136 9.28303 10.3483 8.96633 9.92882 8.73716C9.50936 8.50799 9.04552 8.37171 8.56875 8.33756C8.09199 8.30342 7.61346 8.37221 7.16562 8.53927C6.71778 8.70632 6.31111 8.96774 5.97319 9.30579L3.47849 11.8005C2.87429 12.4286 2.54008 13.2685 2.54765 14.1402C2.55525 15.0142 2.90581 15.8503 3.52384 16.4683C4.14186 17.0863 4.97791 17.4369 5.85189 17.4445C6.72361 17.4521 7.56351 17.1178 8.19165 16.5136L9.61124 15.094C9.93667 14.7686 10.4643 14.7686 10.7897 15.094C11.1152 15.4195 11.1152 15.9471 10.7897 16.2726L9.36475 17.6976L9.35442 17.7077C8.41141 18.6185 7.1484 19.1225 5.83741 19.1111C4.52643 19.0997 3.27237 18.5738 2.34533 17.6468C1.41829 16.7198 0.89244 15.4657 0.881048 14.1547C0.869656 12.8437 1.37363 11.5807 2.28442 10.6377L2.29457 10.6274L4.79446 8.12749C4.79443 8.12752 4.7945 8.12745 4.79446 8.12749C5.30133 7.62047 5.91141 7.22828 6.58312 6.97771Z" fill="#000"/>
</svg>
