<svg width="18" height="18" viewBox="0 0 18 18" fill="none" xmlns="http://www.w3.org/2000/svg">
    <path d="M10.666 6.50033H7.33268C7.11167 6.50033 6.89971 6.58812 6.74343 6.7444C6.58715 6.90068 6.49935 7.11265 6.49935 7.33366V10.667C6.49935 10.888 6.58715 11.1 6.74343 11.2562C6.89971 11.4125 7.11167 11.5003 7.33268 11.5003H10.666C10.887 11.5003 11.099 11.4125 11.2553 11.2562C11.4116 11.1 11.4993 10.888 11.4993 10.667V7.33366C11.4993 7.11265 11.4116 6.90068 11.2553 6.7444C11.099 6.58812 10.887 6.50033 10.666 6.50033ZM9.83268 9.83366H8.16602V8.16699H9.83268V9.83366ZM16.4993 9.83366C16.7204 9.83366 16.9323 9.74586 17.0886 9.58958C17.2449 9.4333 17.3327 9.22134 17.3327 9.00033C17.3327 8.77931 17.2449 8.56735 17.0886 8.41107C16.9323 8.25479 16.7204 8.16699 16.4993 8.16699H14.8327V6.50033H16.4993C16.7204 6.50033 16.9323 6.41253 17.0886 6.25625C17.2449 6.09997 17.3327 5.88801 17.3327 5.66699C17.3327 5.44598 17.2449 5.23402 17.0886 5.07774C16.9323 4.92146 16.7204 4.83366 16.4993 4.83366H14.6827C14.5583 4.48416 14.3576 4.16674 14.0953 3.90441C13.8329 3.64208 13.5155 3.44142 13.166 3.31699V1.50033C13.166 1.27931 13.0782 1.06735 12.9219 0.91107C12.7657 0.75479 12.5537 0.666992 12.3327 0.666992C12.1117 0.666992 11.8997 0.75479 11.7434 0.91107C11.5871 1.06735 11.4993 1.27931 11.4993 1.50033V3.16699H9.83268V1.50033C9.83268 1.27931 9.74489 1.06735 9.5886 0.91107C9.43232 0.75479 9.22036 0.666992 8.99935 0.666992C8.77834 0.666992 8.56637 0.75479 8.41009 0.91107C8.25381 1.06735 8.16602 1.27931 8.16602 1.50033V3.16699H6.49935V1.50033C6.49935 1.27931 6.41155 1.06735 6.25527 0.91107C6.09899 0.75479 5.88703 0.666992 5.66602 0.666992C5.445 0.666992 5.23304 0.75479 5.07676 0.91107C4.92048 1.06735 4.83268 1.27931 4.83268 1.50033V3.31699C4.48318 3.44142 4.16576 3.64208 3.90343 3.90441C3.6411 4.16674 3.44045 4.48416 3.31602 4.83366H1.49935C1.27834 4.83366 1.06637 4.92146 0.910093 5.07774C0.753813 5.23402 0.666016 5.44598 0.666016 5.66699C0.666016 5.88801 0.753813 6.09997 0.910093 6.25625C1.06637 6.41253 1.27834 6.50033 1.49935 6.50033H3.16602V8.16699H1.49935C1.27834 8.16699 1.06637 8.25479 0.910093 8.41107C0.753813 8.56735 0.666016 8.77931 0.666016 9.00033C0.666016 9.22134 0.753813 9.4333 0.910093 9.58958C1.06637 9.74586 1.27834 9.83366 1.49935 9.83366H3.16602V11.5003H1.49935C1.27834 11.5003 1.06637 11.5881 0.910093 11.7444C0.753813 11.9007 0.666016 12.1126 0.666016 12.3337C0.666016 12.5547 0.753813 12.7666 0.910093 12.9229C1.06637 13.0792 1.27834 13.167 1.49935 13.167H3.31602C3.44045 13.5165 3.6411 13.8339 3.90343 14.0962C4.16576 14.3586 4.48318 14.5592 4.83268 14.6837V16.5003C4.83268 16.7213 4.92048 16.9333 5.07676 17.0896C5.23304 17.2459 5.445 17.3337 5.66602 17.3337C5.88703 17.3337 6.09899 17.2459 6.25527 17.0896C6.41155 16.9333 6.49935 16.7213 6.49935 16.5003V14.8337H8.16602V16.5003C8.16602 16.7213 8.25381 16.9333 8.41009 17.0896C8.56637 17.2459 8.77834 17.3337 8.99935 17.3337C9.22036 17.3337 9.43232 17.2459 9.5886 17.0896C9.74489 16.9333 9.83268 16.7213 9.83268 16.5003V14.8337H11.4993V16.5003C11.4993 16.7213 11.5871 16.9333 11.7434 17.0896C11.8997 17.2459 12.1117 17.3337 12.3327 17.3337C12.5537 17.3337 12.7657 17.2459 12.9219 17.0896C13.0782 16.9333 13.166 16.7213 13.166 16.5003V14.6837C13.5155 14.5592 13.8329 14.3586 14.0953 14.0962C14.3576 13.8339 14.5583 13.5165 14.6827 13.167H16.4993C16.7204 13.167 16.9323 13.0792 17.0886 12.9229C17.2449 12.7666 17.3327 12.5547 17.3327 12.3337C17.3327 12.1126 17.2449 11.9007 17.0886 11.7444C16.9323 11.5881 16.7204 11.5003 16.4993 11.5003H14.8327V9.83366H16.4993ZM13.166 12.3337C13.166 12.5547 13.0782 12.7666 12.9219 12.9229C12.7657 13.0792 12.5537 13.167 12.3327 13.167H5.66602C5.445 13.167 5.23304 13.0792 5.07676 12.9229C4.92048 12.7666 4.83268 12.5547 4.83268 12.3337V5.66699C4.83268 5.44598 4.92048 5.23402 5.07676 5.07774C5.23304 4.92146 5.445 4.83366 5.66602 4.83366H12.3327C12.5537 4.83366 12.7657 4.92146 12.9219 5.07774C13.0782 5.23402 13.166 5.44598 13.166 5.66699V12.3337Z" fill="#000"/>
</svg>
