<svg width="14" height="14" viewBox="0 0 14 14" fill="none" xmlns="http://www.w3.org/2000/svg">
    <path fill-rule="evenodd" clip-rule="evenodd" d="M2.33398 1.66634C1.96579 1.66634 1.66732 1.96482 1.66732 2.33301V4.33301H12.334V2.33301C12.334 1.96482 12.0355 1.66634 11.6673 1.66634H2.33398ZM13.6673 2.33301C13.6673 1.22844 12.7719 0.333008 11.6673 0.333008H2.33398C1.22941 0.333008 0.333984 1.22844 0.333984 2.33301V11.6663C0.333984 12.7709 1.22942 13.6663 2.33398 13.6663H11.6673C12.7719 13.6663 13.6673 12.7709 13.6673 11.6663V2.33301ZM12.334 5.66634H5.66732V12.333H11.6673C12.0355 12.333 12.334 12.0345 12.334 11.6663V5.66634ZM4.33398 12.333V5.66634H1.66732V11.6663C1.66732 12.0345 1.96579 12.333 2.33398 12.333H4.33398Z" fill="#344054"/>
</svg>
