<svg width="16" height="18" viewBox="0 0 16 18" fill="none" xmlns="http://www.w3.org/2000/svg">
    <path d="M15.3911 13.375L13.1327 9.475C13.5949 8.62625 13.8356 7.67473 13.8327 6.70833C13.8327 5.16124 13.2182 3.67751 12.1242 2.58354C11.0302 1.48958 9.54651 0.875 7.99941 0.875C6.45231 0.875 4.96858 1.48958 3.87462 2.58354C2.78066 3.67751 2.16608 5.16124 2.16608 6.70833C2.16321 7.67473 2.40395 8.62625 2.86608 9.475L0.607743 13.375C0.534461 13.5019 0.495949 13.6459 0.496094 13.7925C0.496239 13.9391 0.535035 14.083 0.608568 14.2098C0.682101 14.3366 0.78777 14.4417 0.914914 14.5146C1.04206 14.5875 1.18618 14.6256 1.33274 14.625H3.72441L4.94108 16.675C4.98209 16.7429 5.0326 16.8047 5.09108 16.8583C5.24556 17.0072 5.45152 17.0908 5.66608 17.0917H5.78274C5.90855 17.0744 6.02876 17.0287 6.13419 16.9579C6.23962 16.8872 6.32749 16.7932 6.39108 16.6833L7.99941 13.9167L9.60774 16.7083C9.67227 16.8167 9.76054 16.909 9.86592 16.9783C9.97129 17.0476 10.091 17.092 10.2161 17.1083H10.3327C10.5502 17.1096 10.7595 17.0259 10.9161 16.875C10.9721 16.8244 11.0199 16.7654 11.0577 16.7L12.2744 14.65H14.6661C14.8129 14.6506 14.9573 14.6124 15.0846 14.5392C15.2119 14.466 15.3177 14.3605 15.3911 14.2333C15.4689 14.1037 15.5101 13.9554 15.5101 13.8042C15.5101 13.653 15.4689 13.5046 15.3911 13.375ZM5.65774 14.65L4.91608 13.4083C4.84305 13.2851 4.7395 13.1828 4.61543 13.1113C4.49136 13.0398 4.35095 13.0015 4.20774 13H2.76608L3.95774 10.9333C4.77835 11.7241 5.81259 12.2571 6.93274 12.4667L5.65774 14.65ZM7.99941 10.875C7.17532 10.875 6.36974 10.6306 5.68453 10.1728C4.99933 9.71495 4.46528 9.06421 4.14991 8.30285C3.83455 7.54149 3.75203 6.70371 3.9128 5.89546C4.07358 5.0872 4.47041 4.34477 5.05313 3.76205C5.63585 3.17934 6.37828 2.7825 7.18653 2.62173C7.99479 2.46096 8.83256 2.54347 9.59392 2.85884C10.3553 3.1742 11.006 3.70825 11.4639 4.39346C11.9217 5.07866 12.1661 5.88424 12.1661 6.70833C12.1661 7.8134 11.7271 8.87321 10.9457 9.65461C10.1643 10.436 9.10448 10.875 7.99941 10.875ZM11.7911 13C11.6479 13.0015 11.5075 13.0398 11.3834 13.1113C11.2593 13.1828 11.1558 13.2851 11.0827 13.4083L10.3411 14.65L9.07441 12.4417C10.1906 12.2278 11.221 11.6953 12.0411 10.9083L13.2327 12.975L11.7911 13Z" fill="#000"/>
</svg>
