<svg width="20" height="12" viewBox="0 0 20 12" fill="none" xmlns="http://www.w3.org/2000/svg">
    <path d="M5.00065 5.16699C4.83583 5.16699 4.67472 5.21587 4.53768 5.30743C4.40063 5.399 4.29382 5.52915 4.23075 5.68142C4.16768 5.83369 4.15118 6.00125 4.18333 6.1629C4.21548 6.32455 4.29485 6.47304 4.4114 6.58958C4.52794 6.70612 4.67642 6.78549 4.83808 6.81765C4.99973 6.8498 5.16728 6.8333 5.31955 6.77023C5.47183 6.70715 5.60197 6.60034 5.69354 6.4633C5.78511 6.32626 5.83398 6.16514 5.83398 6.00033C5.83398 5.77931 5.74619 5.56735 5.58991 5.41107C5.43363 5.25479 5.22166 5.16699 5.00065 5.16699ZM15.0006 5.16699C14.8358 5.16699 14.6747 5.21587 14.5377 5.30743C14.4006 5.399 14.2938 5.52915 14.2308 5.68142C14.1677 5.83369 14.1512 6.00125 14.1833 6.1629C14.2155 6.32455 14.2948 6.47304 14.4114 6.58958C14.5279 6.70612 14.6764 6.78549 14.8381 6.81765C14.9997 6.8498 15.1673 6.8333 15.3196 6.77023C15.4718 6.70715 15.602 6.60034 15.6935 6.4633C15.7851 6.32626 15.834 6.16514 15.834 6.00033C15.834 5.77931 15.7462 5.56735 15.5899 5.41107C15.4336 5.25479 15.2217 5.16699 15.0006 5.16699ZM16.6673 0.166992H3.33398C2.67094 0.166992 2.03506 0.430384 1.56622 0.899225C1.09738 1.36807 0.833984 2.00395 0.833984 2.66699V9.33366C0.833984 9.9967 1.09738 10.6326 1.56622 11.1014C2.03506 11.5703 2.67094 11.8337 3.33398 11.8337H16.6673C17.3304 11.8337 17.9662 11.5703 18.4351 11.1014C18.9039 10.6326 19.1673 9.9967 19.1673 9.33366V2.66699C19.1673 2.00395 18.9039 1.36807 18.4351 0.899225C17.9662 0.430384 17.3304 0.166992 16.6673 0.166992ZM17.5006 9.33366C17.5006 9.55467 17.4129 9.76663 17.2566 9.92291C17.1003 10.0792 16.8883 10.167 16.6673 10.167H3.33398C3.11297 10.167 2.90101 10.0792 2.74473 9.92291C2.58845 9.76663 2.50065 9.55467 2.50065 9.33366V2.66699C2.50065 2.44598 2.58845 2.23402 2.74473 2.07774C2.90101 1.92146 3.11297 1.83366 3.33398 1.83366H16.6673C16.8883 1.83366 17.1003 1.92146 17.2566 2.07774C17.4129 2.23402 17.5006 2.44598 17.5006 2.66699V9.33366ZM10.0007 3.50033C9.5062 3.50033 9.02285 3.64695 8.61172 3.92165C8.2006 4.19636 7.88017 4.5868 7.69095 5.04362C7.50173 5.50043 7.45222 6.0031 7.54869 6.48805C7.64515 6.973 7.88325 7.41846 8.23288 7.76809C8.58251 8.11772 9.02797 8.35583 9.51292 8.45229C9.99788 8.54875 10.5005 8.49924 10.9574 8.31002C11.4142 8.12081 11.8046 7.80037 12.0793 7.38925C12.354 6.97813 12.5006 6.49478 12.5007 6.00033C12.5006 5.33728 12.2373 4.7014 11.7684 4.23256C11.2996 3.76372 10.6637 3.50033 10.0007 3.50033ZM10.0007 6.83366C9.83583 6.83366 9.67472 6.78478 9.53767 6.69322C9.40063 6.60165 9.29382 6.4715 9.23075 6.31923C9.16768 6.16696 9.15117 5.9994 9.18333 5.83775C9.21548 5.6761 9.29485 5.52761 9.4114 5.41107C9.52794 5.29453 9.67642 5.21516 9.83807 5.183C9.99973 5.15085 10.1673 5.16735 10.3196 5.23043C10.4718 5.2935 10.602 5.40031 10.6935 5.53735C10.7851 5.67439 10.834 5.83551 10.834 6.00033C10.834 6.22134 10.7462 6.4333 10.5899 6.58958C10.4336 6.74586 10.2217 6.83366 10.0007 6.83366Z" fill="#000"/>
</svg>
