<svg width="14" height="18" viewBox="0 0 14 18" fill="none" xmlns="http://www.w3.org/2000/svg">
    <path d="M13.5751 6.95841C13.5059 6.82098 13.3999 6.70541 13.269 6.62451C13.1381 6.54361 12.9874 6.50054 12.8335 6.50008H8.6668V1.50008C8.67574 1.31731 8.62428 1.13669 8.52036 0.986077C8.41644 0.835467 8.26584 0.723249 8.0918 0.666743C7.92448 0.611696 7.74403 0.611077 7.57635 0.664976C7.40866 0.718875 7.26237 0.824519 7.15846 0.966743L0.491795 10.1334C0.408267 10.2541 0.358111 10.3948 0.346404 10.5411C0.334697 10.6874 0.361855 10.8343 0.425129 10.9667C0.483397 11.1182 0.584619 11.2493 0.71637 11.3441C0.848121 11.4388 1.00467 11.493 1.1668 11.5001H5.33346V16.5001C5.33359 16.6758 5.38927 16.847 5.49254 16.9892C5.59581 17.1314 5.74139 17.2373 5.90846 17.2917C5.99219 17.3177 6.07915 17.3317 6.1668 17.3334C6.29828 17.3338 6.42799 17.303 6.5453 17.2436C6.66262 17.1842 6.76422 17.0979 6.8418 16.9917L13.5085 7.82508C13.5982 7.70074 13.652 7.55404 13.6637 7.40112C13.6755 7.24821 13.6448 7.09502 13.5751 6.95841ZM7.00013 13.9334V10.6667C7.00013 10.4457 6.91233 10.2338 6.75605 10.0775C6.59977 9.92121 6.38781 9.83341 6.1668 9.83341H2.83346L7.00013 4.06674V7.33341C7.00013 7.55442 7.08793 7.76638 7.24421 7.92267C7.40049 8.07895 7.61245 8.16674 7.83346 8.16674H11.1668L7.00013 13.9334Z" fill="#000"/>
</svg>
