<svg width="14" height="13" viewBox="0 0 14 13" fill="none" xmlns="http://www.w3.org/2000/svg">
    <path fill-rule="evenodd" clip-rule="evenodd" d="M10.9997 1.58626C10.8014 1.58626 10.6113 1.66502 10.4711 1.80521L2.26833 10.008L1.91593 11.4176L3.32552 11.0652L11.5283 2.86241C11.5977 2.79299 11.6528 2.71058 11.6903 2.61988C11.7279 2.52919 11.7472 2.43198 11.7472 2.33381C11.7472 2.23564 11.7279 2.13843 11.6903 2.04774C11.6528 1.95704 11.5977 1.87463 11.5283 1.80521C11.4589 1.7358 11.3765 1.68073 11.2858 1.64317C11.1951 1.6056 11.0979 1.58626 10.9997 1.58626ZM9.52828 0.862405C9.91852 0.472165 10.4478 0.25293 10.9997 0.25293C11.273 0.25293 11.5435 0.306753 11.796 0.411327C12.0485 0.515901 12.2779 0.669178 12.4711 0.862405C12.6643 1.05563 12.8176 1.28503 12.9222 1.53749C13.0267 1.78996 13.0806 2.06054 13.0806 2.33381C13.0806 2.60708 13.0267 2.87766 12.9222 3.13013C12.8176 3.38259 12.6643 3.61199 12.4711 3.80521L4.13776 12.1385C4.05232 12.224 3.94527 12.2846 3.82805 12.3139L1.16138 12.9806C0.934196 13.0374 0.693871 12.9708 0.528284 12.8052C0.362697 12.6396 0.296131 12.3993 0.352927 12.1721L1.01959 9.50545C1.0489 9.38823 1.10951 9.28118 1.19495 9.19574L9.52828 0.862405ZM6.33302 12.3338C6.33302 11.9656 6.6315 11.6671 6.99969 11.6671H12.9997C13.3679 11.6671 13.6664 11.9656 13.6664 12.3338C13.6664 12.702 13.3679 13.0005 12.9997 13.0005H6.99969C6.6315 13.0005 6.33302 12.702 6.33302 12.3338Z" fill="#344054"/>
</svg>
