<svg width="18" height="20" viewBox="0 0 18 20" fill="none" xmlns="http://www.w3.org/2000/svg">
    <path fill-rule="evenodd" clip-rule="evenodd" d="M2.33366 4.16683C2.33367 4.16786 2.33381 4.1717 2.3362 4.17957C2.33903 4.18886 2.34602 4.2072 2.36289 4.23469C2.39826 4.29231 2.47039 4.37894 2.60552 4.48543C2.88067 4.70227 3.33046 4.934 3.96055 5.14403C5.21201 5.56118 6.9939 5.8335 9.00033 5.8335C11.0068 5.8335 12.7886 5.56118 14.0401 5.14403C14.6702 4.934 15.12 4.70227 15.3951 4.48543C15.5303 4.37894 15.6024 4.29231 15.6378 4.23469C15.6546 4.2072 15.6616 4.18886 15.6644 4.17957C15.6669 4.17159 15.667 4.16799 15.667 4.16702C15.667 4.16696 15.667 4.16705 15.667 4.16702C15.667 4.16641 15.6671 4.16271 15.6644 4.15409C15.6616 4.1448 15.6546 4.12645 15.6378 4.09897C15.6024 4.04135 15.5303 3.95472 15.3951 3.84823C15.12 3.63138 14.6702 3.39966 14.0401 3.18963C12.7886 2.77248 11.0068 2.50016 9.00033 2.50016C6.9939 2.50016 5.21201 2.77248 3.96055 3.18963C3.33046 3.39966 2.88067 3.63138 2.60552 3.84823C2.47039 3.95472 2.39826 4.04135 2.36289 4.09897C2.34602 4.12645 2.33903 4.1448 2.3362 4.15409C2.33365 4.16249 2.33366 4.16609 2.33366 4.16683ZM15.667 6.27233C15.3326 6.44331 14.9614 6.59373 14.5672 6.72516C13.1041 7.21283 11.136 7.50016 9.00033 7.50016C6.86461 7.50016 4.8965 7.21283 3.4335 6.72516C3.03921 6.59373 2.66802 6.44331 2.33366 6.27233V10.0002C2.33366 10.0017 2.33373 10.006 2.33649 10.0152C2.33945 10.025 2.34653 10.0436 2.36331 10.0711C2.39842 10.1287 2.46989 10.2151 2.60382 10.3212C2.87665 10.5374 3.32356 10.7688 3.95171 10.9785C5.19942 11.395 6.98096 11.6668 9.00033 11.6668C11.0197 11.6668 12.8012 11.395 14.0489 10.9785C14.6771 10.7688 15.124 10.5374 15.3968 10.3212C15.5308 10.2151 15.6022 10.1287 15.6373 10.0711C15.6541 10.0436 15.6612 10.025 15.6642 10.0152C15.6669 10.006 15.667 10.0017 15.667 10.0002V6.27233ZM17.3337 4.16683C17.3337 3.45687 16.9012 2.91315 16.4268 2.53921C15.9429 2.15786 15.2943 1.85087 14.5672 1.60849C13.1041 1.12083 11.136 0.833496 9.00033 0.833496C6.86461 0.833496 4.8965 1.12083 3.4335 1.60849C2.70636 1.85087 2.05779 2.15786 1.5739 2.53921C1.0994 2.91315 0.666992 3.45687 0.666992 4.16683V15.8335C0.666992 16.5413 1.09465 17.0852 1.56871 17.4608C2.05108 17.8431 2.69793 18.1503 3.42394 18.3927C4.88457 18.8803 6.85302 19.1668 9.00033 19.1668C11.1476 19.1668 13.1161 18.8803 14.5767 18.3927C15.3027 18.1503 15.9496 17.8431 16.4319 17.4608C16.906 17.0852 17.3337 16.5413 17.3337 15.8335V4.16683ZM15.667 12.11C15.3354 12.2796 14.9675 12.4289 14.5767 12.5594C13.1161 13.047 11.1476 13.3335 9.00033 13.3335C6.85302 13.3335 4.88457 13.047 3.42394 12.5594C3.03314 12.4289 2.66528 12.2796 2.33366 12.11V15.8335C2.33366 15.8351 2.33373 15.8394 2.33649 15.8485C2.33945 15.8583 2.34653 15.8769 2.36331 15.9044C2.39842 15.9621 2.46989 16.0485 2.60382 16.1546C2.87665 16.3708 3.32356 16.6021 3.95171 16.8118C5.19942 17.2283 6.98096 17.5002 9.00033 17.5002C11.0197 17.5002 12.8012 17.2283 14.0489 16.8118C14.6771 16.6021 15.124 16.3708 15.3968 16.1546C15.5308 16.0485 15.6022 15.9621 15.6373 15.9044C15.6541 15.8769 15.6612 15.8583 15.6642 15.8485C15.6669 15.8394 15.667 15.8351 15.667 15.8335V12.11Z" fill="#000"/>
</svg>
