<svg width="14" height="14" viewBox="0 0 14 14" fill="none" xmlns="http://www.w3.org/2000/svg">
    <path d="M12.2663 7.44009C12.1594 7.31843 12.1005 7.16203 12.1005 7.00009C12.1005 6.83815 12.1594 6.68175 12.2663 6.56009L13.1196 5.60009C13.2136 5.49521 13.272 5.36323 13.2864 5.2231C13.3008 5.08297 13.2704 4.94188 13.1996 4.82009L11.8663 2.51343C11.7962 2.39177 11.6895 2.29534 11.5614 2.23788C11.4333 2.18042 11.2904 2.16486 11.1529 2.19343L9.89961 2.44676C9.74013 2.47971 9.5741 2.45315 9.43286 2.37209C9.29162 2.29103 9.18494 2.16108 9.13294 2.00676L8.72627 0.78676C8.68155 0.654346 8.59634 0.539336 8.48269 0.457987C8.36904 0.376639 8.2327 0.333065 8.09294 0.333426H5.42627C5.28089 0.325838 5.13703 0.366044 5.01665 0.447902C4.89627 0.529761 4.80599 0.648772 4.75961 0.78676L4.38627 2.00676C4.33427 2.16108 4.22759 2.29103 4.08635 2.37209C3.94511 2.45315 3.77908 2.47971 3.61961 2.44676L2.33294 2.19343C2.20264 2.17501 2.06981 2.19557 1.95117 2.25252C1.83254 2.30946 1.73341 2.40025 1.66627 2.51343L0.332939 4.82009C0.260379 4.94053 0.227753 5.08082 0.239727 5.22091C0.251701 5.361 0.30766 5.49372 0.399605 5.60009L1.24627 6.56009C1.35315 6.68175 1.41209 6.83815 1.41209 7.00009C1.41209 7.16203 1.35315 7.31843 1.24627 7.44009L0.399605 8.40009C0.30766 8.50647 0.251701 8.63919 0.239727 8.77928C0.227753 8.91937 0.260379 9.05966 0.332939 9.18009L1.66627 11.4868C1.73634 11.6084 1.84302 11.7048 1.97111 11.7623C2.0992 11.8198 2.24215 11.8353 2.37961 11.8068L3.63294 11.5534C3.79242 11.5205 3.95844 11.547 4.09968 11.6281C4.24092 11.7092 4.34761 11.8391 4.39961 11.9934L4.80627 13.2134C4.85266 13.3514 4.94294 13.4704 5.06332 13.5523C5.1837 13.6341 5.32756 13.6743 5.47294 13.6668H8.13961C8.27937 13.6671 8.41571 13.6235 8.52936 13.5422C8.64301 13.4608 8.72821 13.3458 8.77294 13.2134L9.17961 11.9934C9.2316 11.8391 9.33829 11.7092 9.47953 11.6281C9.62077 11.547 9.78679 11.5205 9.94627 11.5534L11.1996 11.8068C11.3371 11.8353 11.48 11.8198 11.6081 11.7623C11.7362 11.7048 11.8429 11.6084 11.9129 11.4868L13.2463 9.18009C13.3171 9.0583 13.3474 8.91722 13.3331 8.77709C13.3187 8.63696 13.2603 8.50498 13.1663 8.40009L12.2663 7.44009ZM11.2729 8.33343L11.8063 8.93343L10.9529 10.4134L10.1663 10.2534C9.68612 10.1553 9.18665 10.2368 8.76267 10.4826C8.33868 10.7284 8.0197 11.1213 7.86627 11.5868L7.61294 12.3334H5.90627L5.66627 11.5734C5.51284 11.108 5.19386 10.7151 4.76988 10.4693C4.34589 10.2235 3.84642 10.1419 3.36627 10.2401L2.57961 10.4001L1.71294 8.92676L2.24627 8.32676C2.57424 7.96008 2.75556 7.48538 2.75556 6.99343C2.75556 6.50147 2.57424 6.02677 2.24627 5.66009L1.71294 5.06009L2.56627 3.59343L3.35294 3.75343C3.83309 3.85157 4.33256 3.77001 4.75654 3.52423C5.18053 3.27844 5.49951 2.88553 5.65294 2.42009L5.90627 1.66676H7.61294L7.86627 2.42676C8.0197 2.8922 8.33868 3.2851 8.76267 3.53089C9.18665 3.77668 9.68612 3.85824 10.1663 3.76009L10.9529 3.60009L11.8063 5.08009L11.2729 5.68009C10.9486 6.04593 10.7696 6.51788 10.7696 7.00676C10.7696 7.49564 10.9486 7.96759 11.2729 8.33343V8.33343ZM6.75961 4.33343C6.23219 4.33343 5.71662 4.48982 5.27808 4.78284C4.83955 5.07586 4.49776 5.49233 4.29593 5.9796C4.09409 6.46687 4.04128 7.00305 4.14418 7.52033C4.24707 8.03762 4.50105 8.51277 4.87399 8.88571C5.24693 9.25865 5.72208 9.51263 6.23936 9.61552C6.75665 9.71841 7.29282 9.66561 7.78009 9.46377C8.26736 9.26194 8.68384 8.92014 8.97686 8.48161C9.26987 8.04308 9.42627 7.52751 9.42627 7.00009C9.42627 6.29285 9.14532 5.61457 8.64522 5.11447C8.14513 4.61438 7.46685 4.33343 6.75961 4.33343V4.33343ZM6.75961 8.33343C6.4959 8.33343 6.23811 8.25523 6.01884 8.10872C5.79958 7.96221 5.62868 7.75397 5.52777 7.51034C5.42685 7.2667 5.40044 6.99861 5.45189 6.73997C5.50334 6.48133 5.63033 6.24375 5.8168 6.05728C6.00327 5.87081 6.24084 5.74383 6.49949 5.69238C6.75813 5.64093 7.02622 5.66734 7.26985 5.76825C7.51348 5.86917 7.72172 6.04007 7.86823 6.25933C8.01474 6.4786 8.09294 6.73638 8.09294 7.00009C8.09294 7.35372 7.95246 7.69285 7.70241 7.9429C7.45237 8.19295 7.11323 8.33343 6.75961 8.33343Z" fill="#344054"/>
</svg>
