<svg width="20" height="18" viewBox="0 0 20 18" fill="none" xmlns="http://www.w3.org/2000/svg">
    <path fill-rule="evenodd" clip-rule="evenodd" d="M0.833333 0.666748C0.373096 0.666748 0 1.03984 0 1.50008V5.66675C0 6.12699 0.373096 6.50008 0.833333 6.50008H1.66667V16.5001C1.66667 16.9603 2.03976 17.3334 2.5 17.3334H17.5C17.9602 17.3334 18.3333 16.9603 18.3333 16.5001V6.50008H19.1667C19.6269 6.50008 20 6.12699 20 5.66675V1.50008C20 1.03984 19.6269 0.666748 19.1667 0.666748H0.833333ZM17.5 4.83342H18.3333V2.33341H1.66667V4.83342H2.5H17.5ZM3.33333 6.50008H16.6667V15.6667H3.33333V6.50008ZM7.5 9.00008C7.5 8.53984 7.8731 8.16675 8.33333 8.16675H11.6667C12.1269 8.16675 12.5 8.53984 12.5 9.00008C12.5 9.46032 12.1269 9.83342 11.6667 9.83342H8.33333C7.8731 9.83342 7.5 9.46032 7.5 9.00008Z" fill="#000"/>
</svg>
