<svg width="16" height="16" viewBox="0 0 16 16" fill="none" xmlns="http://www.w3.org/2000/svg">
    <path fill-rule="evenodd" clip-rule="evenodd" d="M7.99935 1.99996C4.68564 1.99996 1.99935 4.68625 1.99935 7.99996C1.99935 11.3137 4.68564 14 7.99935 14C11.3131 14 13.9993 11.3137 13.9993 7.99996C13.9993 4.68625 11.3131 1.99996 7.99935 1.99996ZM0.666016 7.99996C0.666016 3.94987 3.94926 0.666626 7.99935 0.666626C12.0494 0.666626 15.3327 3.94987 15.3327 7.99996C15.3327 12.05 12.0494 15.3333 7.99935 15.3333C3.94926 15.3333 0.666016 12.05 0.666016 7.99996ZM11.2974 4.70189C11.476 4.88044 11.5383 5.14455 11.4585 5.38411L10.0451 9.62411C9.97878 9.82318 9.82257 9.97939 9.6235 10.0457L5.3835 11.4591C5.14394 11.5389 4.87983 11.4766 4.70128 11.298C4.52272 11.1195 4.46037 10.8554 4.54023 10.6158L5.95356 6.37581C6.01992 6.17674 6.17613 6.02053 6.3752 5.95417L10.6152 4.54084C10.8548 4.46099 11.1189 4.52333 11.2974 4.70189ZM7.11306 7.11367L6.22678 9.77253L8.88564 8.88625L9.77192 6.22739L7.11306 7.11367Z" fill="#344054"/>
</svg>
