<svg width="14" height="14" viewBox="0 0 14 14" fill="none" xmlns="http://www.w3.org/2000/svg">
    <path fill-rule="evenodd" clip-rule="evenodd" d="M6.33398 1.66659C3.75666 1.66659 1.66732 3.75592 1.66732 6.33325C1.66732 8.91058 3.75666 10.9999 6.33398 10.9999C7.59128 10.9999 8.73245 10.5027 9.57158 9.69418C9.58912 9.67136 9.60835 9.64942 9.62925 9.62851C9.65015 9.60761 9.67209 9.58839 9.69491 9.57085C10.5034 8.73172 11.0007 7.59055 11.0007 6.33325C11.0007 3.75592 8.91131 1.66659 6.33398 1.66659ZM11.0219 10.0784C11.843 9.05193 12.334 7.74993 12.334 6.33325C12.334 3.01954 9.64769 0.333252 6.33398 0.333252C3.02028 0.333252 0.333984 3.01954 0.333984 6.33325C0.333984 9.64696 3.02028 12.3333 6.33398 12.3333C7.75066 12.3333 9.05266 11.8423 10.0791 11.0212L12.5292 13.4713C12.7896 13.7317 13.2117 13.7317 13.4721 13.4713C13.7324 13.211 13.7324 12.7889 13.4721 12.5285L11.0219 10.0784Z" fill="#667085"/>
</svg>
