<?xml version="1.0" encoding="UTF-8" standalone="no"?>
<!-- Created with Inkscape (http://www.inkscape.org/) -->

<svg
   width="1440"
   height="900"
   viewBox="0 0 1440 900"
   version="1.1"
   id="svg5"
   xml:space="preserve"
   inkscape:version="1.2.2 (b0a84865, 2022-12-01)"
   sodipodi:docname="form-background.svg"
   xmlns:inkscape="http://www.inkscape.org/namespaces/inkscape"
   xmlns:sodipodi="http://sodipodi.sourceforge.net/DTD/sodipodi-0.dtd"
   xmlns="http://www.w3.org/2000/svg"
   xmlns:svg="http://www.w3.org/2000/svg"><sodipodi:namedview
     id="namedview7"
     pagecolor="#505050"
     bordercolor="#ffffff"
     borderopacity="1"
     inkscape:showpageshadow="0"
     inkscape:pageopacity="0"
     inkscape:pagecheckerboard="1"
     inkscape:deskcolor="#505050"
     inkscape:document-units="px"
     showgrid="false"
     inkscape:zoom="0.34499364"
     inkscape:cx="636.24361"
     inkscape:cy="492.76271"
     inkscape:window-width="1238"
     inkscape:window-height="822"
     inkscape:window-x="232"
     inkscape:window-y="438"
     inkscape:window-maximized="0"
     inkscape:current-layer="layer1" /><defs
     id="defs2" /><g
     inkscape:label="Layer 1"
     inkscape:groupmode="layer"
     id="layer1"><g
       style="fill:none"
       id="g393"
       transform="translate(83.999998,6.2111793e-5)"><path
         d="m 179.645,-91.6914 c 6.636,15.7768 35.832,51.3163 99.533,67.2592 79.627,19.92871 64.697,39.8574 27.372,42.3485 -37.325,2.4911 -102.022,-17.437624 -97.045,12.4554 4.977,29.893 64.697,27.4019 44.79,39.8573 -19.907,12.4554 -186.6249,12.4554 -176.6715,34.875 9.9533,22.42 42.8375,44.234 80.1625,39.252 26.836,-7.364 38.303,7.774 40.116,14.727 2.954,11.335 26.533,5.807 43.951,3.316 17.419,-2.491 94.557,14.947 49.767,34.875 -44.79,19.929 -171.695,9.965 -176.672,52.313 -4.976,42.349 131.882,49.822 161.742,52.313 29.86,2.491 82.115,2.491 79.627,17.437 -2.489,14.947 -54.744,2.492 -54.744,22.42 0,19.929 54.744,22.42 42.302,39.858 -12.442,17.437 -151.788,0 -141.835,32.384 9.953,32.384 109.487,37.366 159.253,37.366 49.767,0 94.557,2.491 151.789,4.982 57.231,2.491 94.556,9.964 99.533,-4.982 4.977,-14.947 -7.465,-19.929 2.488,-27.402 9.954,-7.473 166.719,12.455 184.137,-7.473 17.418,-19.929 9.953,-29.893 17.418,-34.875 7.465,-4.983 92.069,9.964 109.487,-7.474 17.418,-17.437 7.465,-22.419 4.977,-22.419 -2.489,0 -14.93,-7.474 -2.489,-19.929 12.442,-12.456 155.367,-2.491 191.597,-2.491 34.84,0 74.66,4.982 84.61,-7.473 9.95,-12.456 19.9,-32.385 -37.33,-54.804 -19.07,-7.474 -44,-17.11 -72.16,-24.911 -45.17,-12.516 -91.72,-21.16 -82.11,-32.384 14.93,-17.438 73.73,-1.942 119.44,-12.456 35.94,-8.267 82.11,0 89.58,-29.893 7.46,-29.893 -92.07,-29.893 -139.35,-37.366 -37.32,-4.982 -113.468,-20.925 -119.44,-44.8394 -7.465,-29.8931 12.442,-29.8931 17.418,-64.7683 4.977,-34.8751 -19.906,-32.384 -17.418,-49.8216 2.488,-17.4376 34.837,-24.9109 64.7,-22.4198 29.86,2.4911 89.58,-9.9643 94.55,-37.3663 3.98,-21.9216 -627.057,-10.7947 -943.075,-2.491 z"
         fill="#fec84b"
         id="path363" /><path
         d="m 92.5535,162.399 c 4.1472,4.982 19.9065,15.445 49.7665,17.438 37.325,2.491 44.79,9.964 42.302,0 -2.489,-9.965 -19.907,-17.438 -39.814,-17.438 -19.906,0 -54.7429,-12.455 -52.2545,0 z"
         fill="#fec84b"
         id="path365" /><path
         d="m 1053.05,82.6845 c 19.91,4.9821 19.91,14.9465 9.95,17.4375 -9.95,2.491 -34.83,-4.9821 -27.37,-9.9643 7.47,-4.9822 7.47,-7.4732 17.42,-7.4732 z"
         fill="#fec84b"
         id="path367" /><path
         d="m 1277,565.955 c -19.91,22.42 -141.83,27.402 -171.69,32.384 -29.87,4.982 -62.21,4.982 -84.61,17.437 -22.393,12.456 -54.742,-2.491 -27.37,-9.964 27.37,-7.473 87.09,-12.455 131.88,-22.42 C 1170,573.428 1277,548.517 1277,565.955 Z"
         fill="#fec84b"
         id="path369" /><path
         d="m 448.385,583.392 c 12.442,9.965 34.837,22.42 84.603,24.911 49.767,2.491 116.952,9.965 134.37,12.456 17.419,2.491 12.442,-14.947 -29.86,-22.42 -42.301,-7.473 -129.393,-9.964 -151.788,-14.947 -22.395,-4.982 -44.79,-14.946 -37.325,0 z"
         fill="#fec84b"
         id="path371" /><path
         d="m 281.667,546.026 c 7.465,9.964 27.371,32.384 52.255,32.384 24.883,0 49.766,4.982 64.696,9.965 14.93,4.982 29.86,9.964 29.86,0 0,-9.965 -4.976,-19.929 -44.79,-24.911 -39.813,-4.982 -106.998,-34.875 -102.021,-17.438 z"
         fill="#fec84b"
         id="path373" /><path
         d="M 2.97344,448.874 C -19.0572,410.278 87.5768,470.297 117.437,476.276 154.762,483.749 246.83,518.624 231.9,526.097 216.97,533.571 87.5768,491.222 70.1585,483.749 52.7401,476.276 12.9268,466.311 2.97344,448.874 Z"
         fill="#fec84b"
         id="path375" /><path
         d="m 15.4151,389.088 c 9.9534,9.134 39.3157,28.896 77.1384,34.875 47.2785,7.473 54.7435,9.964 57.2315,2.491 2.488,-7.473 -22.395,-22.42 -57.2315,-27.402 -34.8367,-4.982 -42.3017,-12.455 -52.255,-17.437 -9.9534,-4.983 -32.34837,-2.492 -24.8834,7.473 z"
         fill="#fec84b"
         id="path377" /></g><g
       style="fill:none"
       id="g413"
       transform="translate(896,614)"><path
         d="M 1.29193,44.6716 C -6.04034,26.2485 19.6226,20.1074 33.3706,19.3398 53.534,32.236 198.254,8.44393 269.286,0 c 0,19.7234 13.809,13.3267 6.904,35.7154 -3.459,11.2168 13.81,22.7735 13.81,34.288 0,11.5144 -13.748,9.2115 -18.331,18.4231 -4.582,9.2116 4.583,2.3029 0,18.4235 -4.582,16.12 -32.078,18.423 -36.661,27.634 -4.583,9.212 11.457,9.212 9.165,18.423 -2.291,9.212 -32.078,9.212 -41.244,13.818 -9.165,4.606 10.754,11.514 8.463,20.726 -3.437,13.817 -84.512,8.5 -88.7,0 -5.685,-11.539 14.341,-12.072 4.623,-20.726 -5.426,-4.833 -87.0701,-20.726 -93.9444,-32.241 -6.8743,-11.514 32.0789,-4.605 32.0789,-13.817 0,-9.212 -48.1179,-2.303 -57.28328,-18.423 C -0.999101,86.1236 42.5362,97.6381 47.1189,79.2149 51.7015,60.7918 10.4573,67.7005 1.29193,44.6716 Z"
         fill="#9b8afb"
         id="path395" /><path
         d="m 88.3628,201.268 c 11.4567,2.303 54.9922,11.515 57.2832,4.606 2.291,-6.909 -71.0312,-9.212 -57.2832,-4.606 z"
         fill="#9b8afb"
         id="path397" /><path
         d="m 106.693,231.206 c -20.6215,0 -41.2435,-5.656 -57.2828,-18.423 -4.5827,-6.909 45.8266,9.211 59.5748,11.514 13.748,2.303 68.74,-4.606 64.157,4.606 -4.583,9.211 -45.827,2.303 -66.449,2.303 z"
         fill="#9b8afb"
         id="path399" /><path
         d="m 191.473,265.749 c -32.995,1.842 -58.047,-6.909 -66.449,-11.514 -6.874,-6.909 43.535,0 54.992,2.302 11.457,2.303 61.866,-4.605 52.701,2.303 -9.166,6.909 0,4.606 -41.244,6.909 z"
         fill="#9b8afb"
         id="path401" /></g><g
       style="fill:none"
       id="g454"
       transform="translate(899.29053,464.01583)"><path
         d="m 275.01,120.51 c 0,44.862 -59.964,78.091 -135.385,78.091 -75.4208,0 -136.56155,-26.679 -136.56155,-81.231 0,-44.8621 61.14075,-81.2304 136.56155,-81.2304 75.421,0 135.385,39.5076 135.385,84.3704 z"
         fill="#faa7e0"
         id="path415" /><path
         d="m 268.732,146.869 c -9.811,29.432 -65.534,54.939 -128.714,54.939 -40.0264,0 -82.0152,-3.924 -116.1557,-34.533 -6.2787,-37.28 23.9376,16.768 122.8267,14.127 78.092,0 128.123,-52.775 122.043,-34.533 z"
         fill="#dd2590"
         id="path417" /><path
         d="m 140.803,170.055 c 34.728,0 66.23,-7.366 89.096,-19.337 22.807,-11.939 37.335,-28.652 37.335,-47.447 0,-18.7949 -14.528,-35.5072 -37.335,-47.4467 -22.866,-11.9706 -54.368,-19.337 -89.096,-19.337 -34.729,0 -66.2309,7.3664 -89.0969,19.337 C 28.8995,67.7638 14.371,84.4761 14.371,103.271 c 0,18.795 14.5285,35.508 37.3351,47.447 22.866,11.971 54.3679,19.337 89.0969,19.337 z"
         fill="#faa7e0"
         stroke="#000000"
         stroke-width="2.5"
         id="path419" /><path
         d="M 156.5,91.4986 138.749,79.6648 c -1.284,-0.856 -1.714,-2.551 -0.868,-3.842 3.698,-5.6474 10.431,-12.6789 16.264,-16.1102 8.663,-5.0959 22.368,-7.8483 32.571,-7.8483 10.203,0 37.28,1.9621 34.925,17.6588 -1.883,12.5574 -44.212,19.8826 -65.141,21.9755 z"
         fill="#ffffff"
         id="path421" /><path
         fill-rule="evenodd"
         clip-rule="evenodd"
         d="m 82.0064,92.5198 c -1.2138,-0.0269 -1.4176,1.7258 -0.2299,1.978 l 46.0315,9.7742 c 0.479,0.101 0.814,0.535 0.791,1.024 l -1.459,31.375 c -0.034,0.72 0.675,1.223 1.324,0.91 1.516,-0.732 3.859,-2.063 4.883,-3.702 5.509,-8.813 11.361,-22.782 12.09,-24.539 0.05,-0.122 0.124,-0.231 0.217,-0.325 l 2.312,-2.312 c 0.188,-0.188 0.442,-0.293 0.708,-0.293 h 10.181 47.129 c 1.198,0 1.382,-1.725 0.21,-1.978 L 156.03,93.6127 c -0.422,-0.091 -0.738,-0.4426 -0.783,-0.872 l -0.216,-2.0274 -12.949,-8.2408 -4.355,6.189 c -0.042,0.0596 -0.077,0.1236 -0.105,0.1909 l -1.664,3.9924 c -0.155,0.3726 -0.519,0.6154 -0.923,0.6154 h -10.713 z"
         fill="#000000"
         id="path423" /><path
         d="M 155.031,90.7133 152.857,70.207 c -0.098,-0.9182 -1.281,-1.2252 -1.813,-0.47 l -8.962,12.7355 m 12.949,8.2408 0.216,2.0274 c 0.045,0.4294 0.361,0.781 0.783,0.872 l 50.164,10.8193 c 1.172,0.253 0.988,1.978 -0.21,1.978 h -47.129 -10.181 c -0.266,0 -0.52,0.105 -0.708,0.293 l -2.312,2.312 c -0.093,0.094 -0.167,0.203 -0.217,0.325 -0.729,1.757 -6.581,15.726 -12.09,24.539 -1.024,1.639 -3.367,2.97 -4.883,3.702 -0.649,0.313 -1.358,-0.19 -1.324,-0.91 l 1.459,-31.375 c 0.023,-0.489 -0.312,-0.923 -0.791,-1.024 L 81.7765,94.4978 c -1.1877,-0.2522 -0.9839,-2.0049 0.2299,-1.978 l 42.3156,0.9404 h 10.713 c 0.404,0 0.768,-0.2428 0.923,-0.6154 l 1.664,-3.9924 c 0.028,-0.0673 0.063,-0.1313 0.105,-0.1909 l 4.355,-6.189 m 12.949,8.2408 -12.949,-8.2408"
         stroke="#000000"
         stroke-width="2.5"
         id="path425" /><path
         d="m 102.346,44.8013 7.456,11.3801 m 23.152,-12.9498 2.355,9.0257 m 27.862,-10.9878 -3.532,11.7726 m 34.925,-7.0635 -9.81,10.2028 m 32.57,-3.1393 -10.595,9.0256 m 34.925,3.5318 -7.848,3.9242 m 20.013,11.3801 -13.342,3.1394 m 21.191,11.3801 -14.52,0.3924 m 13.342,16.4813 -22.367,-2.354 m 18.836,17.659 -15.697,-3.925 m -0.392,18.444 -13.735,-7.063 m -11.773,20.013 -4.316,-4.317 m -30.217,0.785 7.064,11.773 m -37.28,-9.026 1.57,12.558 m -28.254,-19.229 -7.064,17.266 m -81.6229,-28.254 7.8483,-3.924 m -2.7469,-8.633 25.5072,-3.924 -17.2664,10.203 24.33,-3.14 -16.874,9.418 M 200.45,133.096 c -6.278,-1.439 -15.189,0.622 -12.165,6.671 3.925,7.848 14.52,-5.887 20.799,0 3.2,3 -5.102,9.81 -9.811,7.848 m 32.963,-73.3823 -9.81,-5.8863 -6.279,2.5454 m 0,10.012 -8.241,-6.6711 8.241,-3.3409 m 0,0 7.849,6.0878 M 88.611,69.5237 76.0536,59.3208 97.6366,63.245 85.4717,52.2573 m -33.7481,7.0635 13.3423,9.0256 m -31.3935,5.1015 14.9119,3.9242 m -26.6845,10.5953 21.9755,3.9242 m -25.1148,11.7724 14.9119,0.785 m -10.2029,15.697 13.7347,-2.355"
         stroke="#000000"
         stroke-width="2.5"
         stroke-linecap="round"
         stroke-linejoin="round"
         id="path427" /><path
         d="m 134.067,100.266 10.462,-8.2204 c 0.115,-0.0902 0.278,-0.0847 0.386,0.0129 l 19.433,17.4895 19.482,16.957 c 0.924,0.804 0.973,2.223 0.107,3.089 -0.675,0.676 -1.72,0.814 -2.549,0.337 l -24.496,-14.104 -22.805,-15.075 c -0.171,-0.113 -0.181,-0.36 -0.02,-0.486 z"
         fill="#ffffff"
         id="path429" /><path
         d="M 133.158,100.744 101.064,71.6358 c -0.254,-0.2311 0.017,-0.6393 0.329,-0.4942 l 43.288,20.1515 c 0.202,0.094 0.235,0.3672 0.061,0.5063 l -11.195,8.9566 c -0.115,0.092 -0.28,0.087 -0.389,-0.012 z"
         fill="#d92d20"
         id="path431" /><path
         fill-rule="evenodd"
         clip-rule="evenodd"
         d="m 46.8959,39.8378 c 1.5543,0.4698 2.9888,1.3682 2.7594,2.9757 -0.1709,1.1983 -0.5555,2.5151 -0.8749,3.4773 -0.2945,0.8873 -0.2213,1.866 0.2571,2.6692 l 0.2252,0.378 c 0.2632,0.4419 0.8194,0.6115 1.2861,0.3952 11.7754,-5.4576 22.885,-9.0557 24.8779,-10.4903 0.8237,-0.744 -5.3045,-3.6699 -9.5757,-4.6729 -1.8751,-0.4403 -4.1315,-1.3862 -4.2298,-2.8074 -0.2264,-3.2746 0.8652,-4.1398 2.2341,-4.5029 2.7352,-0.7254 10.2894,-1.4415 13.5841,-4.4173 3.2947,-2.9759 0.3587,-7.0545 -0.7174,-9.0738 C 75.6459,11.7492 67.7943,3.8844 64.2871,3.31314 60.7798,2.74188 50.3908,6.1429 44.8044,7.82348 39.218,9.50406 21.5952,16.0736 17.8886,19.4215 c -3.7065,3.3478 -4.9819,5.2477 -4.125,11.578 0.8439,6.2341 2.3448,7.9777 4.9886,10.0768 2.115,1.6792 10.3129,-0.9044 13.3508,-1.4048 l 9.9294,-2.9125 c 1.308,1.4289 2.9754,2.5081 4.8635,3.0788 z m 3.7008,-22.2896 c -6.0605,-0.3081 -11.2323,4.5305 -11.5514,10.8075 -0.0271,0.5319 -0.0184,1.057 0.0238,1.5729 0,0 -4.6114,1.1208 -7.7509,2.2869 -3.1012,1.1519 -7.0845,2.3939 -7.8484,1.9621 -0.7639,-0.4318 -2.5282,-0.6128 -2.964,-4.407 -0.4357,-3.7942 2.7168,-7.0655 4.3575,-8.4228 1.6408,-1.3573 10.3094,-5.305 17.2907,-7.7652 5.6602,-1.9946 14.0937,-3.86756 17.549,-4.59879 1.0161,-0.21503 2.0722,-0.09891 2.999,0.36976 1.4457,0.73103 3.6545,1.94503 5.0459,3.17283 1.2064,1.0647 2.5505,2.8035 3.3528,3.904 0.3771,0.5173 0.154,1.2376 -0.4449,1.4638 -1.4152,0.5344 -3.8376,1.4248 -5.638,1.959 -2.5645,0.761 -4.0276,1.1186 -6.654,1.6263 -1.8883,-2.2746 -4.6406,-3.7723 -7.7671,-3.9313 z"
         fill="#faa7e0"
         stroke="#000000"
         stroke-width="2.5"
         id="path433" /><path
         d="m 276.507,119.332 c 0,23.03 -15.119,44.075 -39.979,59.428 -24.841,15.341 -59.236,24.87 -97.295,24.87 -38.058,0 -72.4535,-9.529 -97.294,-24.87 C 17.0788,163.407 1.95947,142.362 1.95947,119.332 1.95947,96.303 17.0788,75.2576 41.939,59.9049 66.7795,44.5643 101.175,35.0352 139.233,35.0352 c 38.059,0 72.454,9.5291 97.295,24.8697 24.86,15.3527 39.979,36.3981 39.979,59.4271 z"
         stroke="#000000"
         stroke-width="2.5"
         id="path435" /></g></g></svg>
