<svg width="22" height="22" viewBox="0 0 22 22" fill="none" xmlns="http://www.w3.org/2000/svg">
<g id="user">
<path id="Vector" fill-rule="evenodd" clip-rule="evenodd" d="M11 3.88813C9.52724 3.88813 8.33333 5.08204 8.33333 6.5548C8.33333 8.02756 9.52724 9.22146 11 9.22146C12.4728 9.22146 13.6667 8.02756 13.6667 6.5548C13.6667 5.08204 12.4728 3.88813 11 3.88813ZM6.55556 6.5548C6.55556 4.1002 8.5454 2.11035 11 2.11035C13.4546 2.11035 15.4444 4.1002 15.4444 6.5548C15.4444 9.0094 13.4546 10.9992 11 10.9992C8.5454 10.9992 6.55556 9.0094 6.55556 6.5548ZM4.30175 14.0788C5.13524 13.2453 6.2657 12.777 7.44444 12.777H14.5556C15.7343 12.777 16.8648 13.2453 17.6983 14.0788C18.5317 14.9123 19 16.0427 19 17.2215V18.9992C19 19.4902 18.602 19.8881 18.1111 19.8881C17.6202 19.8881 17.2222 19.4902 17.2222 18.9992V17.2215C17.2222 16.5142 16.9413 15.8359 16.4412 15.3358C15.9411 14.8357 15.2628 14.5548 14.5556 14.5548H7.44444C6.7372 14.5548 6.05892 14.8357 5.55883 15.3358C5.05873 15.8359 4.77778 16.5142 4.77778 17.2215V18.9992C4.77778 19.4902 4.37981 19.8881 3.88889 19.8881C3.39797 19.8881 3 19.4902 3 18.9992V17.2215C3 16.0427 3.46825 14.9123 4.30175 14.0788Z" fill="#7F56D9"/>
</g>
</svg>
