<svg width="10" height="10" viewBox="0 0 10 10" fill="none" xmlns="http://www.w3.org/2000/svg">
    <path fill-rule="evenodd" clip-rule="evenodd" d="M0.529247 0.528636C0.789596 0.268287 1.21171 0.268287 1.47206 0.528636L5.00065 4.05723L8.52925 0.528636C8.7896 0.268287 9.21171 0.268287 9.47206 0.528636C9.73241 0.788986 9.73241 1.2111 9.47206 1.47145L5.94346 5.00004L9.47206 8.52864C9.73241 8.78899 9.73241 9.2111 9.47206 9.47145C9.21171 9.7318 8.7896 9.7318 8.52925 9.47145L5.00065 5.94285L1.47206 9.47145C1.21171 9.7318 0.789596 9.7318 0.529247 9.47145C0.268897 9.2111 0.268897 8.78899 0.529247 8.52864L4.05784 5.00004L0.529247 1.47145C0.268897 1.2111 0.268897 0.788986 0.529247 0.528636Z" fill="#344054"/>
</svg>
