<svg width="18" height="18" viewBox="0 0 18 18" fill="none" xmlns="http://www.w3.org/2000/svg">
    <path fill-rule="evenodd" clip-rule="evenodd" d="M3.16699 2.33317C2.94598 2.33317 2.73402 2.42097 2.57774 2.57725C2.42146 2.73353 2.33366 2.94549 2.33366 3.1665V14.8332C2.33366 15.0542 2.42146 15.2661 2.57774 15.4224C2.73402 15.5787 2.94598 15.6665 3.16699 15.6665H6.50033C6.96056 15.6665 7.33366 16.0396 7.33366 16.4998C7.33366 16.9601 6.96056 17.3332 6.50033 17.3332H3.16699C2.50395 17.3332 1.86807 17.0698 1.39923 16.6009C0.930384 16.1321 0.666992 15.4962 0.666992 14.8332V3.1665C0.666992 2.50346 0.930384 1.86758 1.39923 1.39874C1.86807 0.929896 2.50395 0.666504 3.16699 0.666504H6.50033C6.96056 0.666504 7.33366 1.0396 7.33366 1.49984C7.33366 1.96007 6.96056 2.33317 6.50033 2.33317H3.16699ZM11.7444 4.24392C12.0698 3.91848 12.5975 3.91848 12.9229 4.24392L17.0896 8.41058C17.415 8.73602 17.415 9.26366 17.0896 9.58909L12.9229 13.7558C12.5975 14.0812 12.0698 14.0812 11.7444 13.7558C11.419 13.4303 11.419 12.9027 11.7444 12.5772L14.4885 9.83317H6.50033C6.04009 9.83317 5.66699 9.46008 5.66699 8.99984C5.66699 8.5396 6.04009 8.1665 6.50033 8.1665H14.4885L11.7444 5.42243C11.419 5.09699 11.419 4.56935 11.7444 4.24392Z" fill="#F04438"/>
</svg>
