<svg width="20" height="20" viewBox="0 0 20 20" fill="none" xmlns="http://www.w3.org/2000/svg">
    <path d="M17.1009 3.22523C16.7572 2.5071 16.2149 1.90247 15.5383 1.48292C14.8617 1.06337 14.079 0.846452 13.2829 0.857849C12.4868 0.869247 11.7107 1.10848 11.0463 1.54723C10.382 1.98598 9.85726 2.60589 9.53424 3.33357H5.83424C5.1712 3.33357 4.53532 3.59696 4.06648 4.0658C3.59764 4.53464 3.33424 5.17052 3.33424 5.83357V9.1669C3.33424 9.38791 3.42204 9.59987 3.57832 9.75615C3.7346 9.91243 3.94656 10.0002 4.16758 10.0002C4.38859 10.0002 4.60055 9.91243 4.75683 9.75615C4.91311 9.59987 5.00091 9.38791 5.00091 9.1669V5.83357C5.00091 5.61255 5.08871 5.40059 5.24499 5.24431C5.40127 5.08803 5.61323 5.00023 5.83424 5.00023H8.15091C7.73609 5.4566 7.50459 6.05019 7.50091 6.6669C7.50091 7.32994 7.7643 7.96583 8.23314 8.43467C8.70198 8.90351 9.33787 9.1669 10.0009 9.1669H16.1092C16.8349 9.17213 17.5386 8.91847 18.094 8.4515C18.6494 7.98452 19.0201 7.33482 19.1396 6.61908C19.2591 5.90334 19.1194 5.16845 18.7458 4.54642C18.3721 3.92438 17.7889 3.45594 17.1009 3.22523ZM16.1092 7.50023H10.0009C9.7799 7.50023 9.56793 7.41243 9.41165 7.25615C9.25537 7.09987 9.16758 6.88791 9.16758 6.6669C9.16758 6.44589 9.25537 6.23392 9.41165 6.07764C9.56793 5.92136 9.7799 5.83357 10.0009 5.83357C10.2219 5.83357 10.4339 5.74577 10.5902 5.58949C10.7464 5.43321 10.8342 5.22125 10.8342 5.00023C10.8275 4.40553 11.033 3.82791 11.4139 3.3711C11.7947 2.91428 12.3259 2.60821 12.9121 2.50783C13.4984 2.40745 14.1011 2.51935 14.6123 2.82343C15.1234 3.1275 15.5094 3.60384 15.7009 4.1669C15.7485 4.3101 15.8342 4.43768 15.9487 4.53601C16.0631 4.63434 16.2022 4.69975 16.3509 4.72523C16.6768 4.77922 16.9724 4.94873 17.1835 5.20274C17.3947 5.45676 17.5074 5.7783 17.5009 6.10857C17.5009 6.29132 17.4649 6.47229 17.395 6.64113C17.325 6.80998 17.2225 6.96339 17.0933 7.09262C16.9641 7.22185 16.8107 7.32436 16.6418 7.3943C16.473 7.46424 16.292 7.50023 16.1092 7.50023ZM15.8342 10.8336C15.6132 10.8336 15.4013 10.9214 15.245 11.0776C15.0887 11.2339 15.0009 11.4459 15.0009 11.6669V14.1669C15.0009 14.3879 14.9131 14.5999 14.7568 14.7562C14.6006 14.9124 14.3886 15.0002 14.1676 15.0002H12.2842C12.1232 14.5878 11.8743 14.2154 11.5548 13.9089C11.2353 13.6024 10.853 13.3691 10.4342 13.2252C10.0566 12.4238 9.43337 11.7636 8.65502 11.3405C7.87666 10.9174 6.98371 10.7534 6.10581 10.8724C5.2279 10.9913 4.41075 11.3869 3.773 12.0018C3.13524 12.6167 2.71008 13.4189 2.55924 14.2919C1.9949 14.4774 1.51504 14.8578 1.20566 15.3649C0.896278 15.872 0.777587 16.4727 0.870854 17.0594C0.964121 17.6461 1.26325 18.1804 1.71465 18.5666C2.16604 18.9527 2.7402 19.1656 3.33424 19.1669H9.44258C10.1561 19.1669 10.847 18.9167 11.3951 18.46C11.9433 18.0032 12.3139 17.3687 12.4426 16.6669H14.1676C14.8306 16.6669 15.4665 16.4035 15.9353 15.9347C16.4042 15.4658 16.6676 14.8299 16.6676 14.1669V11.6669C16.6676 11.4459 16.5798 11.2339 16.4235 11.0776C16.2672 10.9214 16.0553 10.8336 15.8342 10.8336ZM9.44258 17.5002H3.33424C3.11323 17.5002 2.90127 17.4124 2.74499 17.2562C2.58871 17.0999 2.50091 16.8879 2.50091 16.6669C2.50091 16.4459 2.58871 16.2339 2.74499 16.0776C2.90127 15.9214 3.11323 15.8336 3.33424 15.8336C3.55526 15.8336 3.76722 15.7458 3.9235 15.5895C4.07978 15.4332 4.16758 15.2212 4.16758 15.0002C4.16085 14.4055 4.36636 13.8279 4.7472 13.3711C5.12804 12.9143 5.65927 12.6082 6.24548 12.5078C6.83169 12.4075 7.43448 12.5193 7.94561 12.8234C8.45674 13.1275 8.84272 13.6038 9.03424 14.1669C9.08188 14.3101 9.1675 14.4377 9.28198 14.536C9.39646 14.6343 9.5355 14.6997 9.68424 14.7252C10.0101 14.7792 10.3057 14.9487 10.5169 15.2027C10.728 15.4568 10.8407 15.7783 10.8342 16.1086C10.8342 16.2913 10.7982 16.4723 10.7283 16.6411C10.6584 16.81 10.5559 16.9634 10.4266 17.0926C10.2974 17.2219 10.144 17.3244 9.97514 17.3943C9.8063 17.4642 9.62533 17.5002 9.44258 17.5002V17.5002Z" fill="#000"/>
</svg>
