<svg width="18" height="16" viewBox="0 0 18 16" fill="none" xmlns="http://www.w3.org/2000/svg">
    <path d="M14.3497 3.60032C13.8406 2.43032 12.9618 1.45955 11.8481 0.836758C10.7344 0.213967 9.44727 -0.0264871 8.18386 0.152244C6.92045 0.330975 5.7505 0.91903 4.85327 1.8263C3.95604 2.73357 3.38105 3.91 3.21639 5.17532C2.51824 5.34536 1.89372 5.73646 1.43593 6.29032C0.978137 6.84417 0.711574 7.53113 0.675971 8.24881C0.640368 8.96649 0.837632 9.67647 1.23836 10.2729C1.63909 10.8694 2.22183 11.3203 2.89972 11.5587C2.98615 11.5853 3.07596 11.5993 3.16639 11.6003C3.3874 11.6357 3.61341 11.5818 3.7947 11.4505C3.97598 11.3192 4.0977 11.1213 4.13306 10.9003C4.16842 10.6793 4.11454 10.4533 3.98326 10.272C3.85198 10.0907 3.65407 9.96901 3.43306 9.93365C3.11882 9.82022 2.84592 9.61496 2.64977 9.34452C2.45362 9.07407 2.34328 8.75092 2.33306 8.41699C2.33306 7.97496 2.50865 7.55104 2.82121 7.23847C3.13377 6.92591 3.5577 6.75032 3.99972 6.75032C4.22074 6.75032 4.4327 6.66252 4.58898 6.50624C4.74526 6.34996 4.83306 6.138 4.83306 5.91699C4.83519 4.93138 5.18663 3.97845 5.82495 3.22747C6.46327 2.4765 7.34713 1.97611 8.31951 1.81521C9.2919 1.65432 10.2898 1.84332 11.136 2.34866C11.9822 2.85399 12.6219 3.64294 12.9414 4.57532C12.989 4.71852 13.0747 4.8461 13.1891 4.94443C13.3036 5.04276 13.4426 5.10817 13.5914 5.13365C14.0925 5.22435 14.554 5.46593 14.914 5.82606C15.2741 6.18618 15.5156 6.64769 15.6062 7.14882C15.6969 7.64995 15.6323 8.1668 15.4211 8.63022C15.21 9.09365 14.8623 9.48153 14.4247 9.74199C14.2324 9.85249 14.0919 10.0349 14.0341 10.249C13.9763 10.4631 14.0059 10.6914 14.1164 10.8837C14.2269 11.0759 14.4093 11.2164 14.6234 11.2743C14.8375 11.3321 15.0658 11.3025 15.2581 11.192C15.8899 10.8252 16.4142 10.2988 16.7784 9.66549C17.1426 9.03217 17.3339 8.31422 17.3331 7.58365C17.3305 6.6871 17.0389 5.81527 16.5014 5.09766C15.964 4.38005 15.2094 3.85494 14.3497 3.60032V3.60032ZM11.4997 11.1003V10.0837C11.4997 9.42061 11.2363 8.78473 10.7675 8.31589C10.2987 7.84704 9.66276 7.58365 8.99972 7.58365C8.33668 7.58365 7.7008 7.84704 7.23196 8.31589C6.76312 8.78473 6.49972 9.42061 6.49972 10.0837V11.067C5.94858 11.267 5.48526 11.6543 5.19075 12.1613C4.89624 12.6682 4.78927 13.2626 4.88856 13.8404C4.98784 14.4182 5.28706 14.9428 5.7339 15.3224C6.18074 15.702 6.74677 15.9124 7.33306 15.917H10.6664C11.2527 15.9124 11.8187 15.702 12.2656 15.3224C12.7124 14.9428 13.0116 14.4182 13.1109 13.8404C13.2102 13.2626 13.1032 12.6682 12.8087 12.1613C12.5142 11.6543 12.0509 11.267 11.4997 11.067V11.1003ZM8.16639 10.0837C8.16639 9.86264 8.25419 9.65068 8.41047 9.4944C8.56675 9.33812 8.77871 9.25032 8.99972 9.25032C9.22074 9.25032 9.4327 9.33812 9.58898 9.4944C9.74526 9.65068 9.83306 9.86264 9.83306 10.0837V10.917H8.16639V10.0837ZM10.6664 14.2503H7.33306C7.11204 14.2503 6.90008 14.1625 6.7438 14.0062C6.58752 13.85 6.49972 13.638 6.49972 13.417C6.49972 13.196 6.58752 12.984 6.7438 12.8277C6.90008 12.6714 7.11204 12.5837 7.33306 12.5837H10.6664C10.8874 12.5837 11.0994 12.6714 11.2556 12.8277C11.4119 12.984 11.4997 13.196 11.4997 13.417C11.4997 13.638 11.4119 13.85 11.2556 14.0062C11.0994 14.1625 10.8874 14.2503 10.6664 14.2503Z" fill="#000"/>
</svg>
