<svg width="18" height="18" viewBox="0 0 18 18" fill="none" xmlns="http://www.w3.org/2000/svg">
    <path d="M17.7503 11.083C17.7503 10.641 17.5747 10.2171 17.2621 9.90452C16.9495 9.59196 16.5256 9.41637 16.0836 9.41637H11.0836C10.6416 9.41637 10.2176 9.59196 9.90508 9.90452C9.59252 10.2171 9.41693 10.641 9.41693 11.083H6.91693V8.58304H8.85859C9.58276 8.58424 10.2837 8.32774 10.8361 7.85943C11.3885 7.39111 11.7562 6.74154 11.8734 6.02693C11.9907 5.31231 11.8499 4.57929 11.4761 3.95901C11.1024 3.33873 10.5202 2.87166 9.83359 2.64137C9.45253 1.84674 8.82932 1.19339 8.05356 0.775246C7.27779 0.357103 6.38943 0.195699 5.51615 0.314234C4.64288 0.432769 3.82968 0.825139 3.19345 1.43494C2.55722 2.04475 2.13072 2.84058 1.97526 3.70804C1.41091 3.89352 0.931059 4.27391 0.621677 4.78103C0.312294 5.28815 0.193603 5.88887 0.28687 6.47555C0.380136 7.06223 0.679266 7.59652 1.13066 7.9827C1.58206 8.36888 2.15621 8.5817 2.75026 8.58304H5.25026V15.2497C5.25026 15.4707 5.33806 15.6827 5.49434 15.839C5.65062 15.9952 5.86258 16.083 6.08359 16.083H9.41693C9.41693 16.5251 9.59252 16.949 9.90508 17.2615C10.2176 17.5741 10.6416 17.7497 11.0836 17.7497H16.0836C16.5256 17.7497 16.9495 17.5741 17.2621 17.2615C17.5747 16.949 17.7503 16.5251 17.7503 16.083V14.4164C17.7472 14.1229 17.6667 13.8354 17.5169 13.583C17.6667 13.3306 17.7472 13.0432 17.7503 12.7497V11.083ZM2.75026 6.91637C2.52925 6.91637 2.31728 6.82857 2.161 6.67229C2.00472 6.51601 1.91693 6.30405 1.91693 6.08304C1.91693 5.86202 2.00472 5.65006 2.161 5.49378C2.31728 5.3375 2.52925 5.2497 2.75026 5.2497C2.97127 5.2497 3.18323 5.1619 3.33951 5.00562C3.4958 4.84934 3.58359 4.63738 3.58359 4.41637C3.57687 3.82167 3.78238 3.24405 4.16322 2.78723C4.54406 2.33042 5.07528 2.02434 5.66149 1.92397C6.2477 1.82359 6.85049 1.93548 7.36162 2.23956C7.87275 2.54364 8.25874 3.01998 8.45026 3.58304C8.49915 3.72468 8.58532 3.85053 8.69971 3.94732C8.8141 4.04411 8.95247 4.10827 9.10026 4.13304C9.42759 4.18722 9.7243 4.35794 9.93565 4.6137C10.147 4.86946 10.2587 5.19302 10.2503 5.5247C10.2503 5.8938 10.1036 6.24777 9.84265 6.50876C9.58166 6.76975 9.22768 6.91637 8.85859 6.91637H2.75026ZM9.41693 14.4164H6.91693V12.7497H9.41693C9.41997 13.0432 9.50046 13.3306 9.65026 13.583C9.50046 13.8354 9.41997 14.1229 9.41693 14.4164ZM11.0836 16.083V14.4164H16.0836V16.083H11.0836ZM11.0836 12.7497V11.083H16.0836V12.7497H11.0836Z" fill="#000"/>
</svg>
